<?xml version="1.0" encoding="UTF-8"?><svg xmlns="http://www.w3.org/2000/svg" xmlns:xlink="http://www.w3.org/1999/xlink" viewBox="0 0 460 492.91"><defs><style>.e{fill:#862c31;}.f{fill:#f5f9ef;}.g{fill:url(#d);}</style><radialGradient id="d" cx="280" cy="269.29" fx="280" fy="269.29" r="180" gradientTransform="matrix(1, 0, 0, 1, 0, 0)" gradientUnits="userSpaceOnUse"><stop offset=".55" stop-color="#862c31"/><stop offset=".63" stop-color="#893136" stop-opacity=".97"/><stop offset=".71" stop-color="#934348" stop-opacity=".89"/><stop offset=".79" stop-color="#a46165" stop-opacity=".75"/><stop offset=".86" stop-color="#bc8b8e" stop-opacity=".55"/><stop offset=".93" stop-color="#dbc0c2" stop-opacity=".29"/><stop offset="1" stop-color="#fff" stop-opacity="0"/></radialGradient></defs><g id="a"/><g id="b"><g id="c"><g><path class="g" d="M457.12,237.07c-80.2-10.71-145.03-69.99-163.9-147.3h-.01c-4.36-.32-8.77-.48-13.21-.48s-8.85,.16-13.21,.48h-.01c-18.87,77.31-83.7,136.59-163.9,147.3-1.89,10.45-2.88,21.22-2.88,32.22s.99,21.77,2.88,32.23c80.2,10.69,145.02,69.98,163.9,147.29,4.37,.32,8.77,.48,13.22,.48s8.85-.16,13.22-.48c18.88-77.31,83.7-136.6,163.9-147.29,1.89-10.46,2.88-21.23,2.88-32.23s-.99-21.77-2.88-32.22Zm-177.12,84.12c-28.66,0-51.9-23.23-51.9-51.9s23.24-51.9,51.9-51.9,51.9,23.24,51.9,51.9-23.24,51.9-51.9,51.9Z"/><g><path class="e" d="M112.02,228.36c1.39-5.71,3.07-11.37,5.02-16.89,.31-.86,.62-1.73,.94-2.59,.39-1.04,.8-2.09,1.21-3.15,.44-1.11,.87-2.17,1.31-3.23,.44-1.06,.9-2.11,1.36-3.16,.02-.05,.04-.1,.06-.15,.45-.99,.9-1.97,1.35-2.95,3.24-6.93,6.98-13.7,11.09-20.13,.46-.71,.93-1.44,1.41-2.16,1.48-2.23,2.98-4.38,4.46-6.41,.61-.82,1.24-1.68,1.87-2.51,.62-.82,1.25-1.64,1.89-2.45,.86-1.1,1.74-2.18,2.62-3.26,.63-.76,1.29-1.55,1.97-2.34,.7-.82,1.38-1.59,2.07-2.37l1.44-1.61c.44-.51,.85-.95,1.27-1.38,.03-.03,.06-.06,.08-.09,1.36-1.46,2.81-2.96,4.32-4.47,15.34-15.34,33.15-27.52,52.94-36.19l1.76-.76c14.31-6.07,29.31-10.15,44.68-12.18-9.89,32.72-28.46,61.99-54.11,85.16-25.84,23.34-57.13,38.87-91.02,45.27Z"/><path class="f" d="M246.57,106.95c-10.11,27-26.57,51.2-48.32,70.85-21.93,19.81-47.94,33.77-76.14,41.01,.53-1.65,1.08-3.3,1.66-4.93,.3-.83,.6-1.67,.91-2.49,.39-1.04,.79-2.07,1.19-3.11,.38-.96,.78-1.94,1.23-3.01,.4-.96,.83-1.96,1.3-3.03,.03-.06,.05-.11,.07-.17,.42-.93,.84-1.86,1.27-2.77,3.11-6.65,6.7-13.15,10.62-19.28,.45-.7,.9-1.4,1.38-2.11,1.41-2.12,2.84-4.18,4.26-6.12,.6-.81,1.2-1.63,1.81-2.43,.59-.78,1.19-1.57,1.81-2.35,.83-1.05,1.68-2.09,2.52-3.14,.61-.74,1.22-1.47,1.85-2.2l.07-.08c.64-.75,1.29-1.49,1.94-2.23l.68-.76c.25-.28,.51-.57,.76-.85,.03-.04,.07-.07,.1-.11,.29-.33,.61-.68,.98-1.07,.05-.06,.11-.11,.16-.17,1.3-1.4,2.7-2.84,4.14-4.29,14.69-14.69,31.75-26.36,50.7-34.67,.31-.13,.62-.27,.93-.4,.27-.12,.55-.24,.8-.34,10.13-4.29,20.6-7.55,31.32-9.75m20.21-17.18c-20.14,1.46-39.35,6.24-57.11,13.77-.61,.26-1.22,.53-1.83,.79-20.69,9.07-39.36,21.92-55.12,37.68-1.53,1.53-3.03,3.08-4.5,4.66-.5,.52-.99,1.05-1.46,1.59-.48,.54-.96,1.07-1.44,1.61-.72,.81-1.43,1.62-2.13,2.44-.71,.82-1.4,1.65-2.09,2.48-.91,1.12-1.82,2.24-2.71,3.37-.67,.85-1.33,1.71-1.98,2.57-.65,.86-1.3,1.74-1.94,2.61-1.59,2.18-3.13,4.4-4.63,6.66-.5,.75-.99,1.51-1.48,2.27-4.29,6.7-8.15,13.7-11.55,20.96-.5,1.07-.99,2.15-1.48,3.23t0,.01c-.48,1.09-.95,2.18-1.41,3.28-.46,1.1-.91,2.2-1.35,3.31-.43,1.11-.86,2.22-1.28,3.34-.33,.89-.66,1.79-.98,2.69-3.19,9.02-5.69,18.37-7.43,27.98,80.2-10.71,145.03-69.99,163.9-147.3h0Z"/></g><g><path class="e" d="M257.15,440.64c-34.43-4.59-67.14-19.68-93.03-43.09-25.69-23.23-43.95-53.93-52.09-87.33,33.88,6.39,65.17,21.92,91.01,45.26,25.65,23.17,44.22,52.44,54.11,85.16Z"/><path class="f" d="M122.11,319.78c28.2,7.24,54.21,21.2,76.14,41,21.74,19.64,38.2,43.84,48.32,70.85-11.13-2.28-21.99-5.7-32.46-10.24-16.55-7.18-31.76-16.98-45.2-29.14-13.39-12.11-24.65-26.2-33.47-41.89-5.49-9.76-9.94-19.99-13.32-30.58m-19.23-18.26c14.43,79.81,81.47,141.31,163.9,147.29-18.88-77.31-83.7-136.6-163.9-147.29h0Z"/></g><g><path class="e" d="M280,314.05c-24.68,0-44.76-20.08-44.76-44.76s20.08-44.76,44.76-44.76,44.76,20.08,44.76,44.76-20.08,44.76-44.76,44.76Z"/><path class="f" d="M280,231.67c20.74,0,37.61,16.87,37.61,37.61s-16.87,37.61-37.61,37.61-37.61-16.87-37.61-37.61,16.87-37.61,37.61-37.61m0-14.29c-28.66,0-51.9,23.24-51.9,51.9s23.24,51.9,51.9,51.9,51.9-23.23,51.9-51.9-23.24-51.9-51.9-51.9h0Z"/></g><g><path class="e" d="M302.85,440.64c9.89-32.72,28.46-61.99,54.11-85.16,25.84-23.34,57.13-38.87,91.01-45.26-8.15,33.4-26.4,64.1-52.09,87.33-25.89,23.41-58.6,38.5-93.03,43.09Z"/><path class="f" d="M437.89,319.78c-3.38,10.59-7.84,20.82-13.32,30.58-8.82,15.69-20.08,29.79-33.47,41.89-13.44,12.15-28.65,21.96-45.2,29.14-10.47,4.54-21.32,7.96-32.46,10.24,10.12-27.01,26.57-51.21,48.32-70.85,21.93-19.81,47.94-33.77,76.14-41m19.23-18.26c-80.2,10.69-145.02,69.98-163.9,147.29,82.43-5.98,149.47-67.48,163.9-147.29h0Z"/></g><g><path class="e" d="M447.98,228.36c-33.89-6.4-65.18-21.93-91.02-45.27-25.65-23.17-44.22-52.45-54.11-85.16,37.46,4.96,72.43,22.19,99.38,49.13,1.51,1.51,2.96,3.01,4.32,4.47,.03,.03,.06,.06,.08,.09,.42,.43,.83,.88,1.22,1.33l1.49,1.67c.69,.77,1.37,1.55,2.04,2.33,.71,.82,1.37,1.62,2.03,2.41l.02,.02c.86,1.06,1.73,2.13,2.57,3.2,.65,.82,1.28,1.64,1.9,2.46,.63,.83,1.26,1.69,1.88,2.53,1.47,2.02,2.97,4.17,4.43,6.38,.47,.71,.93,1.42,1.38,2.12,4.15,6.48,7.88,13.25,11.13,20.19,1.92,4.1,3.7,8.35,5.3,12.64,.31,.85,.63,1.72,.94,2.59,1.95,5.52,3.63,11.17,5.02,16.88Z"/><path class="f" d="M313.44,106.96c31.52,6.48,60.69,22.11,83.74,45.15,1.45,1.45,2.84,2.89,4.14,4.29,.05,.06,.11,.11,.16,.17,.38,.39,.7,.74,.98,1.07,.03,.04,.07,.07,.1,.11,.25,.29,.51,.57,.76,.85l.68,.76c.66,.74,1.3,1.48,1.94,2.23l.06,.08c.63,.73,1.24,1.46,1.85,2.2,.85,1.04,1.69,2.09,2.53,3.14,.61,.77,1.21,1.56,1.8,2.34,.61,.8,1.21,1.62,1.81,2.44,1.42,1.94,2.85,4,4.27,6.14,.45,.68,.89,1.36,1.34,2.05,3.95,6.17,7.53,12.66,10.64,19.31,1.84,3.93,3.55,8.01,5.07,12.09,.31,.83,.62,1.67,.91,2.49,.58,1.64,1.13,3.29,1.66,4.95-28.2-7.24-54.21-21.21-76.14-41.01-21.74-19.64-38.2-43.84-48.31-70.83m-20.22-17.19c18.87,77.31,83.7,136.59,163.9,147.3-1.74-9.61-4.24-18.96-7.43-27.98-.32-.9-.65-1.8-.98-2.69-1.67-4.48-3.51-8.87-5.52-13.17-3.4-7.26-7.26-14.26-11.55-20.96-.49-.76-.98-1.52-1.48-2.27-1.5-2.26-3.04-4.48-4.63-6.66-.64-.87-1.29-1.75-1.94-2.61-.65-.86-1.31-1.72-1.98-2.57-.89-1.13-1.8-2.25-2.71-3.37-.69-.83-1.38-1.66-2.09-2.48-.7-.82-1.41-1.63-2.13-2.44-.48-.54-.96-1.07-1.44-1.61-.47-.54-.96-1.07-1.46-1.59-1.47-1.58-2.97-3.13-4.5-4.66-29.67-29.66-69.62-49.02-114.06-52.24h0Z"/></g><g><path class="e" d="M93.32,487.91c-2.36,0-4.75-.64-6.91-1.85-4.4-2.47-7.36-6.47-8.78-11.89-.25-.96-.33-1.97-.23-2.9,0-.07,0-.1,0-.1h0s-.09-.22-.55-.63c-1.34-1.21-3.12-2.16-5-3.16-.4-.22-.81-.43-1.21-.65-1.87-1.02-3.7-2.1-5.47-3.14l-1.68-.99c-4.44-2.59-6.69-6.98-6.33-12.37,.34-5.26,2.08-9.95,5.18-13.94,2.02-2.61,4.54-4.22,7.49-4.81,.08-.05,.3-.22,.7-.67,1.98-2.25,3.65-4.26,5.11-6.15,0,0,1.36-1.76,1.66-2.14-.23,.06-.45,.12-.68,.18-1.68,.44-3.06,.65-4.33,.65-4.72,0-7.42-2.88-9.43-5.7-1.93-2.7-3.22-5.57-3.84-8.55-.66-3.14,.14-6.06,2.25-8.21,.52-.53,1.03-1.06,1.54-1.59,1.33-1.39,2.71-2.83,4.22-4.2,5.85-5.33,11.4-9.76,16.89-13.46-.2-.1-.4-.2-.59-.3-1.57-.84-2.82-1.93-3.74-3.22-1.88,1.69-3.73,3.52-5.69,5.48-13.46,13.51-25.12,25.7-35.67,37.29-.73,.8-1.42,1.62-2.12,2.45-.46,.55-.93,1.1-1.4,1.64-3.29,3.78-7.36,6.57-12.1,8.3-1.58,.57-3.01,.85-4.38,.85-3.17,0-5.84-1.43-8.16-4.36-3.99-5.06-5.66-10.94-4.84-17,.24-1.79,.86-3.68,1.83-5.63,1.75-3.5,3.8-7.57,6.05-11.5,.92-1.6,2.04-2.94,3.03-4.13,.37-.45,.75-.89,1.1-1.35,.66-.85,1.32-1.68,1.99-2.52,1.44-1.81,2.8-3.52,4.07-5.29,3.19-4.45,7.04-9.65,11.48-14.55,1.31-1.45,2.53-3.06,3.82-4.77,.71-.95,1.43-1.89,2.16-2.82,1.28-1.61,2.31-2.83,3.33-3.96,1.2-1.31,3.02-2.13,4.75-2.13,.7,0,1.37,.13,2.01,.38,2.58,1.02,3.76,3.72,3.77,5.8,.01,2-.06,3.65-.21,5.18-.1,.99-.21,1.99-.32,2.98,.35-.24,.7-.49,1.05-.73,5.36-3.82,9.95-8.54,14.81-13.55l.09-.09c5.45-5.61,10.92-11.41,16.21-17.01l2.64-2.79c-.42-.08-.89-.14-1.38-.2-.52-.07-1.04-.14-1.56-.23-.75-.12-1.79-.3-2.9-.86-2.46-1.24-3.83-3.38-3.67-5.7,.18-2.44,1.98-4.75,4.29-5.5,1.35-.43,3.14-.97,5.06-1.25,2.45-.36,4.9-.56,7-.73,.11,0,.2-.02,.38-.16,2.74-2.02,5.05-4.49,6.87-7.34-.4-1.39-.78-2.78-1.15-4.16-5.34,1.2-10.68,2.4-16.02,3.62-.33,.07-.76,.22-1.22,.38-.29,.1-.58,.2-.88,.29-2.03,.65-3.09,1.83-3.57,3.97-.63,2.81-1.19,5.72-1.74,8.54l-.75,3.87c-.74,3.83-1.5,7.78-3.04,11.7-.5,1.28-1.22,2.55-2.09,3.69-1.71,2.24-3.76,2.58-4.83,2.58-.89,0-3.89-.28-5.39-3.86-1-2.4-2.04-4.88-2.88-7.53-.77-2.44-1.47-4.91-2.15-7.3-.34-1.21-.69-2.41-1.04-3.62-1.34,.35-2.65,.57-3.86,.75-2.94,.44-5.56,1.65-8.01,3.7-1.34,1.12-2.96,2.42-4.74,3.52-1.74,1.06-3.4,1.58-5.1,1.58-1.94,0-4.74-.71-7.1-4.07-1.04-1.48-1.9-3.18-2.7-5.35-1.09-2.94-1.84-6.21-2.28-9.98-.38-3.24,.16-6.36,1.6-9.29,2.64-5.37,6.23-10.13,10.67-14.15,.91-.83,1.85-1.44,2.67-1.99l.18-.12c1.45-.96,3.06-1.47,4.66-1.47,1.86,0,3.62,.67,5.1,1.92,1.51,1.28,2.9,2.61,4.12,3.96,.14,.15,.27,.3,.4,.45,.44-.21,.88-.42,1.34-.62,2.18-17.47,4.53-36.13,6.97-54.51,1.32-9.92,2.72-19.99,4.07-29.74,1.06-7.64,2.12-15.27,3.15-22.92,.78-5.79,1.56-11.64,2.31-17.46-.38,.89-.78,1.79-1.19,2.68-2.66,5.75-4.95,10.39-7.18,14.6-.92,1.73-2.1,3.12-3.15,4.34-.38,.44-.76,.88-1.11,1.34-.89,1.14-2.24,1.84-3.69,1.92-.08,0-.17,0-.25,0-1.36,0-2.67-.55-3.61-1.54-3.54-3.7-8.33-9.59-8.93-17.9-.12-1.69-.29-3.14-.5-4.43-.2-1.21-.38-2.34-.71-3.15-1.65-4.17-1.47-8.44,.52-12.33l.71-1.38c1.88-3.69,3.83-7.5,6.07-11.17,4.48-7.32,9.08-14.73,13.53-21.89,3.96-6.37,7.92-12.74,11.84-19.13,2.09-3.41,4.17-6.89,6.22-10.36-1.26,.58-2.57,.87-3.9,.87-1.97,0-3.86-.63-5.6-1.88-2.51-1.79-4.21-4.31-5.22-7.71-1.07-3.6-1.36-7.13-1.64-10.54-.36-4.42-.77-9.46-1.12-14.44-.1-1.44,0-2.96,.27-4.4,.62-3.18,3.13-5.32,6.24-5.32,.77,0,1.56,.14,2.34,.4,1.32,.45,2.52,1.03,3.58,1.7,.92,.59,1.83,1.21,2.74,1.83,1.18,.81,2.3,1.57,3.43,2.24,.88,.53,1.9,.97,2.92,1.27,.17,.05,.34,.07,.51,.07,.56,0,1.1-.28,1.45-.51,2.31-1.51,4.53-3.11,6.88-4.8l.27-.19,.2-2.6c.38-5.03,.78-10.23,1.08-15.33,.12-2.07-.01-3.57-.44-4.87-.8-2.47-.57-5.13,.68-7.91,2.7-5.97,7.14-10.12,13.19-12.33,1.54-.56,3.1-.85,4.63-.85,3.22,0,6.27,1.27,8.82,3.66,1.88,1.76,2.73,3.64,3.07,5.3,2.26,1.34,3.32,3.37,3.75,4.17,1.4,2.67,3.54,4.5,6.35,5.45,3.3,1.12,5.92,3.07,8.01,5.96,1.23,1.71,2.31,3.45,3.34,5.14l.27,.44c1.31,2.13,.78,4.6-.06,6.06-1.04,1.79-2.19,3.5-3.5,5.16,1.51-1.32,3.02-2.65,4.52-3.97,2.85-2.53,5.56-5.5,7.87-8.09,1.92-2.15,3.32-4.93,4.79-7.88l.55-1.09c.9-1.78,1.83-3.27,2.86-4.57,2.22-2.82,4.69-3.41,6.37-3.41,2.07,0,4.04,.87,5.84,2.59,2.98,2.85,5.05,6.41,6.33,10.89,1.21,4.23,1.65,8.81,1.36,14-.19,3.39-.55,6.84-1.08,10.25-.78,5.05-3.33,9.28-7.6,12.61,.56-.1,1.14-.15,1.71-.15,1.75,0,3.44,.46,5.03,1.38,8.43,4.86,13.3,13.95,12.4,23.17-.37,3.79-1.85,7.24-4.39,10.25-1.43,1.69-2.9,3.36-4.32,4.97-1.14,1.29-2.27,2.58-3.39,3.88-1.31,1.53-2.69,3.23-4.33,5.34-.37,.48-.76,1.15-1.17,1.85l-.09,.16c-.4,.69-.29,.94-.06,1.34,1.87,3.2,3,6.59,3.35,10.07,.26,2.52,.45,5.88-.33,9.42-1.37,6.27-5.62,7.74-8.94,7.87-2.54,.1-5.11,1.04-7.84,2.04l-.76,.28c-6.27,2.28-11.47,4.46-16.17,6.78,1.63,.99,2.91,2.21,3.83,3.58,.17-.01,.32-.02,.43-.02,.17,0,.34,0,.52,.02,3.5,.29,5.16,2.17,5.94,3.88,.06,.06,.12,.11,.18,.17,.59,.53,1.19,1.04,1.8,1.55,.98,.82,1.99,1.68,2.98,2.64l.08,.08c1.73,1.68,3.53,3.42,5.1,5.52,3.18,4.23,3.39,9.34,.58,14.01-2.01,3.33-4.79,6.31-8.76,9.36-1.75,1.34-3.85,2.02-6.27,2.02-.25,0-.51,0-.76-.02-1.06-.06-2.12-.14-3.18-.21-1.53-.11-2.98-.22-4.43-.27h-.24c-1.42,0-2.31,.49-3.16,1.77-1.94,2.91-3.34,6.16-4.39,8.95,.11-.08,.22-.15,.33-.23,2.62-1.86,5.46-2.81,8.43-2.81,1.48,0,2.99,.24,4.49,.71,3.98,1.26,8.65,2.87,13.19,5.32,2.57,1.39,4.68,3.3,6.27,5.7,2.95,4.45,3.34,9.43,1.12,14.03-.73,1.51-1.55,2.88-2.34,4.2-.45,.76-.91,1.51-1.33,2.28-.17,.32-.36,.64-.54,.95-.42,.72-.89,1.54-.99,1.99-.25,1.12-.22,2.59-.14,4,.36,6.65-.13,13.06-.65,18.45-.12,1.21-.24,2.42-.38,3.63,.39-.06,.79-.12,1.18-.19,1.93-.31,3.93-.63,6.05-.73,.45-.02,.9-.03,1.35-.03,2.18,0,4.25,.24,6.26,.47l.37,.04c2.81,.32,5.38,1.74,7.65,4.21,4.07,4.45,6.63,10.08,7.81,17.2,.23,1.38,.28,2.71,.33,3.88v.28c.15,3.43-.99,6.61-3.3,9.21-3.92,4.4-8,7.79-12.48,10.36-3.32,1.9-7.04,2.86-11.05,2.86-.41,0-.82-.01-1.23-.03-3.74-.18-7.48-.59-11.3-1.03-1.84-.21-3.44-.87-4.64-1.42-.44-.2-.85-.44-1.22-.71-.37,2.39-1.03,4.98-2.43,7.46-.98,1.73-2.16,3.11-3.43,4.23,3.4,.7,6.8,1.41,10.2,2.14,5.46,1.17,10.9,3.6,16.63,7.42,4.29,2.86,8.1,5.77,11.64,8.88,1.68,1.48,3.49,2.85,5.4,4.31,1.02,.78,2.04,1.56,3.05,2.35l.31,.25c1.12,.88,2.27,1.8,3.4,2.91,3.48,3.45,5.14,7.93,5.07,13.71-.02,1.67-.22,3.21-.41,4.7l-.12,.9c-.33,2.7-2.18,4.09-2.96,4.69-.27,.2-.72,.76-1.11,1.25l-.27,.33c-.52,.64-1.02,1.29-1.52,1.95-.47,.61-.94,1.23-1.42,1.83-1.79,2.25-4.25,2.57-5.06,2.68-2.03,.27-3.97,.66-5.78,1.16-3.95,1.1-8.6,2.42-13.08,3.9-2.17,.72-4.31,1.08-6.36,1.08-2.78,0-5.49-.66-8.06-1.96-.21-.11-.44-.21-.66-.32-1.92,3.63-4.67,6.41-8.22,8.29-.32,.17-.64,.35-.96,.53-.73,.41-1.56,.87-2.47,1.28-2.68,1.21-5.37,2.4-8.06,3.6-1.52,.68-3.04,1.35-4.56,2.03,3.73,1.73,7.44,3.47,11.15,5.23,.85,.4,1.52,.87,2.06,1.25,.14,.09,.27,.19,.41,.28,5.17,3.42,7.92,8.5,7.97,14.69,.01,1.86-.08,3.69-.17,5.45-.04,.77-.08,1.54-.11,2.31-.12,3.12-1.8,5.65-4.6,6.95-.29,.13-.57,.29-.85,.45-.56,.31-1.26,.71-2.07,1.04-3.69,1.5-7.29,3.92-11.35,7.64-7.92,7.24-14.2,14.73-19.2,22.89-1.42,2.32-2.46,4.61-3.2,7-1.71,5.59-6.53,9.2-12.27,9.21Zm-5.8-36.35c.69,.56,1.49,1.11,2.42,1.66-.78-.66-1.46-1.42-2.04-2.26-.13,.2-.25,.4-.38,.6Zm46.66-83.55c.88,.21,1.76,.42,2.64,.65l.9,.23c2.77,.71,5.83,1.5,8.71,3.25,2.68-2.78,5.35-5.57,8.01-8.37-3.88-3.04-7.1-5.51-10.11-7.78,.02,1.99-.72,3.91-2.18,5.46-1.08,1.15-2.26,2.35-3.66,3.43-1.34,1.04-2.7,1.99-4.01,2.91-.1,.07-.2,.14-.29,.21Zm7.85-68c1.51,.8,2.7,1.88,3.56,3.17,.21-.27,.44-.53,.7-.78,.65-.63,1.55-1.44,2.76-2.04,1.23-.61,2.36-1.52,3.58-2.91-4.08,.56-8,1.2-11.82,1.91,.41,.21,.81,.43,1.22,.64Zm-52.6-99.65c-1.06,9.61-1.94,18.92-2.66,28.06-1.15,14.62-2.16,30.26-1.72,45.65,.06,1.96,.17,4,.34,6.08,2.42-.61,4.84-1.23,7.26-1.85-1.49-3.74-1.82-7.59-.99-11.44,.72-3.36,2.19-6.27,3.63-8.95,1.13-2.12,2.05-3.88,2.7-5.68,1.07-2.97,1.63-6.19,2.21-9.6,.21-1.21,.42-2.42,.65-3.62,1.05-5.45,2.11-10.89,3.17-16.34,.55-2.84,1.11-5.68,1.66-8.52-.28,.06-.56,.12-.83,.18-.69,.15-1.37,.23-2.04,.23-2.74,0-5.17-1.27-6.82-3.57l-.32-.45c-1.38-1.91-2.8-3.89-4.13-5.96-.8-1.24-1.36-2.5-1.85-3.62l-.26-.59Zm7-52.08c-1.28,8.19-2.39,15.73-3.37,22.89-1,7.3-1.91,14.38-2.72,21.29,.37-.46,.79-.89,1.27-1.29l.22-.18c.47-.39,1.01-.83,1.62-1.26,2.38-1.67,4.05-3.82,5.1-6.59,2.31-6.06,5.84-11.25,10.49-15.42,.95-.85,1.83-1.8,2.64-2.87-.49,.06-.98,.09-1.47,.09-.89,0-1.78-.1-2.65-.3-3.42-.79-6.16-2.99-7.93-6.36-1.7-3.24-2.77-6.58-3.2-9.99Zm4.68-22.75c-.99,3.13-1.76,6.27-2.38,9.29,1.05-1.42,2.41-2.58,3.99-3.38-.77-1.19-1.23-2.5-1.39-3.91,0,0-.2-1.84-.22-1.99Zm24.89-36.44c1.44,.59,2.7,1.5,3.7,2.66-.33-1.07-.77-2.06-1.32-3.01-.27-.47-.51-.95-.7-1.44-.57,.6-1.13,1.19-1.68,1.78Zm-3.33-27.28c-2.93,1.82-5.64,3.18-8.39,4.26-1.21,.47-1.56,1.04-1.78,1.93-.2,.82-.41,1.64-.61,2.46-.02,.06-.03,.12-.05,.19,3.48-2.8,7.2-5.8,10.82-8.83Z"/><path class="f" d="M110.72,10c1.96,0,3.78,.78,5.4,2.3,1.09,1.02,1.77,2.25,1.68,3.83-.05,.82,.34,1.51,1.14,1.69,1.52,.34,2.33,1.36,3,2.64,2.02,3.83,5.17,6.51,9.17,7.86,2.43,.82,4.15,2.21,5.56,4.15,1.22,1.69,2.31,3.49,3.4,5.27,.13,.21,.02,.68-.13,.94-3.8,6.55-9.29,11.47-15.36,15.82-3.8,2.72-7.75,5.2-12.13,6.91-2.53,.99-4.16,2.74-4.81,5.39-.61,2.49-1.28,4.98-1.84,7.49-.31,1.37-.1,2.7,.84,3.84,.47,.57,.86,.87,1.36,.87,.27,0,.57-.09,.93-.27,1.25-.64,2.5-1.35,3.59-2.23,5.05-4.05,10.1-8.11,15.05-12.29,7.07-5.96,14.12-11.96,21.03-18.09,2.95-2.62,5.64-5.55,8.28-8.49,2.64-2.95,4.3-6.54,6.08-10.05,.66-1.3,1.42-2.59,2.32-3.73,.79-1.01,1.6-1.5,2.44-1.5,.76,0,1.55,.4,2.38,1.2,2.5,2.39,4.04,5.35,4.98,8.64,1.15,4.04,1.41,8.19,1.18,12.35-.18,3.27-.53,6.54-1.03,9.77-.7,4.58-3.32,7.93-7.16,10.44-2.31,1.51-4.57,3.12-6.8,4.76-.74,.54-1.39,1.25-1.96,1.98-2.24,2.86-4.9,5.24-7.96,7.18-.28,.18-.55,.38-.88,.61,1.32,2.05,2.62,4.07,3.98,6.18,.27-.2,.51-.37,.74-.55,4.18-3.14,8.34-6.33,12.57-9.41,1.34-.97,2.84-1.74,4.34-2.46,.72-.35,1.45-.52,2.19-.52,.86,0,1.71,.24,2.54,.71,6.26,3.6,10.68,10.56,9.92,18.35-.28,2.87-1.41,5.36-3.23,7.51-2.51,2.98-5.15,5.86-7.69,8.82-1.54,1.8-3.03,3.66-4.48,5.53-.62,.8-1.13,1.69-1.63,2.57-1.22,2.11-1.27,4.27-.05,6.37,1.47,2.5,2.4,5.16,2.7,8.05,.27,2.63,.34,5.24-.24,7.85-.56,2.58-1.64,3.84-4.25,3.94-3.59,.14-6.83,1.42-10.11,2.61-6.3,2.29-12.49,4.82-18.45,7.89-.75,.39-1.5,.8-2.2,1.28-1.43,.99-1.6,2.21-.48,3.52,.51,.6,1.12,1.12,1.75,1.59,.7,.52,1.46,.96,2.22,1.4,3.13,1.82,3.99,4.69,2.38,7.95-.79,1.6-1.99,2.87-3.31,4.04-.72,.64-1.43,1.29-2.1,1.97-.28,.28-.45,.67-.82,1.25,.48,.01,.86,.07,1.18,.07,.15,0,.29-.01,.42-.04,1.42-.34,2.84-.73,4.24-1.15,1.64-.49,2.49-1.66,2.73-3.33,.19-1.32,.38-2.63,.59-3.94,.07-.44,.2-.88,.37-1.3,.24-.59,.57-1.15,1.28-1.15,.04,0,.08,0,.12,0,.79,.06,1.51,.18,1.87,1.14,.23,.62,.8,1.17,1.31,1.63,1.53,1.38,3.18,2.64,4.66,4.07,1.64,1.59,3.3,3.19,4.66,5.01,1.99,2.66,2.01,5.59,.3,8.43-1.92,3.2-4.59,5.72-7.52,7.97-.95,.73-2.06,.99-3.22,.99-.16,0-.32,0-.48-.01-2.57-.15-5.13-.39-7.7-.49-.15,0-.29,0-.44,0-3.11,0-5.56,1.35-7.32,4-2.41,3.63-4.09,7.62-5.53,11.69-1.11,3.13-1.95,6.37-2.85,9.57-.17,.61-.09,1.3-.14,2.22,.74-.4,1.25-.62,1.7-.93,2.72-1.93,5.43-3.88,8.14-5.82,.55-.39,1.12-.76,1.68-1.16,1.75-1.24,3.59-1.88,5.54-1.88,.97,0,1.96,.16,2.99,.48,4.23,1.34,8.4,2.84,12.32,4.95,1.81,.98,3.32,2.32,4.47,4.06,1.92,2.9,2.3,5.96,.78,9.09-1.04,2.15-2.4,4.15-3.56,6.25-.76,1.38-1.69,2.75-2.03,4.25-.39,1.73-.35,3.59-.26,5.38,.32,5.92-.06,11.82-.63,17.7-.28,2.93-.63,5.85-.95,8.78-.03,.31-.07,.61-.12,1.07,1.7-.2,3.31-.36,4.92-.58,2.74-.36,5.47-.95,8.22-1.09,.37-.02,.73-.03,1.1-.03,2.02,0,4.05,.25,6.06,.48,1.84,.21,3.29,1.27,4.53,2.62,3.8,4.15,5.66,9.19,6.56,14.64,.19,1.17,.23,2.36,.28,3.55,.09,2.16-.62,4.07-2.05,5.68-3.27,3.68-6.95,6.89-11.23,9.34-2.66,1.52-5.57,2.2-8.57,2.2-.33,0-.65,0-.98-.02-3.66-.18-7.32-.59-10.96-1.01-1.07-.12-2.14-.54-3.13-.99-1.1-.5-1.18-1.3-.32-2.15,.44-.43,.93-.86,1.48-1.13,2.96-1.46,5.09-3.83,6.97-6.44,1.62-2.24,3.08-4.59,4.74-7.07-2.05,.17-3.9,.26-5.73,.48-8.67,1.04-17.27,2.44-25.79,4.37-.6,.14-1.2,.34-1.75,.61-1.3,.64-1.4,1.53-.23,2.36,.68,.48,1.48,.8,2.24,1.18,2.66,1.36,5.34,2.68,7.98,4.08,1.95,1.03,2.64,2.74,2.41,4.91-.28,2.66-.75,5.27-2.08,7.63-1.83,3.23-4.81,4.93-8.17,6.08-2,.69-4.03,1.3-6.04,1.95-.28,.09-.55,.21-.82,.46,1.4,.29,2.8,.57,4.19,.86,6.97,1.45,13.95,2.86,20.92,4.35,5.44,1.16,10.31,3.62,14.9,6.69,3.88,2.59,7.6,5.38,11.11,8.47,2.75,2.42,5.76,4.54,8.64,6.82,1.13,.89,2.27,1.78,3.29,2.79,2.8,2.77,3.63,6.31,3.59,10.1-.02,1.68-.28,3.37-.49,5.05-.07,.6-.52,.94-1.03,1.32-.86,.65-1.54,1.56-2.23,2.41-1.02,1.25-1.96,2.55-2.96,3.81-.45,.57-1.03,.74-1.81,.84-2.17,.29-4.35,.71-6.46,1.3-4.46,1.24-8.91,2.52-13.31,3.97-1.63,.54-3.22,.83-4.79,.83-1.95,0-3.87-.45-5.79-1.42-1.73-.88-3.58-1.52-5.49-2.32-.32,.69-.65,1.33-.91,2.01-1.37,3.63-3.62,6.49-7.09,8.33-1.05,.56-2.06,1.18-3.14,1.67-5.25,2.37-10.53,4.68-15.79,7.05-1.6,.72-3.15,1.53-4.72,2.31-.42,.21-.81,.49-1.39,.85,.51,.36,.87,.71,1.3,.91,2.3,1.07,4.63,2.08,6.93,3.15,4.04,1.87,8.08,3.76,12.11,5.67,.66,.31,1.24,.78,1.86,1.18,3.78,2.5,5.69,6.06,5.73,10.56,.02,2.51-.17,5.03-.27,7.54-.05,1.21-.57,2.08-1.7,2.6-.92,.43-1.77,1.01-2.71,1.4-4.87,1.98-9,5.07-12.84,8.58-7.76,7.1-14.58,14.99-20.09,23.97-1.57,2.56-2.83,5.26-3.71,8.15-1.1,3.59-4.11,5.67-7.49,5.67-1.46,0-2.99-.39-4.46-1.22-3.46-1.94-5.4-5.04-6.39-8.8-.09-.35-.13-.74-.09-1.09,.23-2.09-.7-3.66-2.18-5-2.13-1.91-4.68-3.13-7.16-4.49-2.38-1.3-4.7-2.69-7.04-4.05-2.97-1.73-4.08-4.41-3.86-7.73,.27-4.14,1.59-7.91,4.14-11.2,1.17-1.51,2.62-2.61,4.58-2.99,1.41-.27,2.5-1.22,3.41-2.26,1.83-2.08,3.61-4.2,5.31-6.38,2.67-3.44,5.27-6.94,8.52-9.87,1.86-1.67,3.9-2.96,6.44-3.36,.71-.11,1.43-.54,2.01-.99,.63-.48,.5-1.21-.26-1.43-.41-.12-.87-.2-1.31-.2-.26,0-.51,.03-.74,.1-3.41,1-6.79,2.1-10.18,3.17-2.91,.92-5.78,1.95-8.72,2.73-1.19,.32-2.19,.49-3.05,.49-2.17,0-3.55-1.07-5.36-3.6-1.44-2.02-2.5-4.22-3.02-6.67-.29-1.4-.09-2.64,.93-3.68,1.84-1.88,3.61-3.83,5.55-5.6,5.65-5.15,11.58-9.96,18-14.13,1.72-1.12,3.54-2.01,5.53-2.5,.13-.03,.26-.04,.39-.04,.32,0,.66,.06,.98,.08-.11,.44-.11,.96-.36,1.31-.82,1.18-1.76,2.28-2.58,3.46-.74,1.06-1.49,2.14-2.04,3.3-.53,1.13-.09,1.9,1.12,2.27,.58,.18,1.15,.27,1.7,.27,1.13,0,2.2-.38,3.19-1.14,2.05-1.57,3.22-3.73,3.82-6.15,.51-2.05,.74-4.16,1.12-6.41-2.03-.11-3.89-.2-5.75-.31-2.74-.16-5.49-.26-8.12-1.14-.59-.2-1.17-.44-1.71-.73-2.14-1.15-3.09-2.95-2.93-5.38,.04-.56-.11-1.14-.18-1.71-.55,.23-1.18,.35-1.65,.7-3.84,2.82-7.23,6.16-10.59,9.52-12.2,12.24-24.19,24.67-35.83,37.46-1.24,1.36-2.39,2.79-3.6,4.18-2.75,3.16-6.11,5.45-10.03,6.88-1,.36-1.87,.55-2.67,.55-1.61,0-2.91-.77-4.24-2.46-3.05-3.87-4.48-8.29-3.81-13.23,.19-1.4,.72-2.81,1.35-4.08,1.89-3.79,3.8-7.57,5.91-11.24,1.01-1.77,2.48-3.27,3.74-4.9,2.06-2.65,4.22-5.24,6.17-7.97,3.49-4.87,7.09-9.65,11.12-14.1,2.23-2.46,4.12-5.24,6.19-7.85,1-1.26,2.02-2.5,3.11-3.69,.23-.26,.72-.5,1.05-.5,.06,0,.12,0,.17,.03,.32,.12,.6,.76,.61,1.17,0,1.55-.03,3.11-.19,4.65-.37,3.57-.82,7.14-1.21,10.71-.06,.55,0,1.11,0,1.92,.82-.31,1.55-.45,2.14-.82,2.58-1.62,5.19-3.21,7.68-4.98,5.77-4.1,10.68-9.18,15.58-14.23,6.75-6.96,13.39-14.03,20.06-21.07,.75-.8,1.4-1.7,2.03-2.61,.99-1.44,.81-2.33-.81-3.04-1.38-.6-2.88-.98-4.36-1.33-1.23-.29-2.51-.39-3.77-.6-.5-.08-1.02-.17-1.47-.39-.39-.2-.96-.61-.94-.89,.03-.4,.46-.97,.84-1.1,1.39-.45,2.81-.85,4.25-1.06,2.2-.33,4.43-.52,6.65-.69,1.12-.09,2.09-.48,2.97-1.12,3.27-2.41,5.99-5.32,8.17-8.75,.75-1.19,1-2.4,.6-3.79-.84-2.93-1.61-5.88-2.38-8.72-.17-.09-.23-.14-.27-.14h0c-6.83,1.53-13.66,3.06-20.48,4.62-.85,.19-1.67,.52-2.5,.78-3.79,1.21-6.08,3.82-6.93,7.65-.82,3.7-1.52,7.42-2.25,11.14-.81,4.13-1.52,8.29-3.06,12.24-.34,.88-.84,1.73-1.41,2.49-.31,.4-.59,.6-.85,.6-.3,0-.56-.26-.78-.79-.98-2.34-1.96-4.69-2.72-7.11-1.26-3.98-2.33-8.03-3.52-12.03-.31-1.02-.77-2-1.22-2.97-.18-.38-.46-.61-.81-.61-.16,0-.34,.05-.52,.15-2.02,1.12-4.25,1.53-6.48,1.86-3.98,.59-7.42,2.24-10.49,4.81-1.32,1.1-2.68,2.19-4.14,3.08-.91,.56-1.73,.85-2.49,.85-1.12,0-2.09-.64-3.01-1.94-.89-1.27-1.56-2.75-2.11-4.22-1.05-2.84-1.65-5.8-2-8.82-.27-2.3,.11-4.45,1.12-6.5,2.37-4.82,5.56-9.04,9.54-12.65,.69-.62,1.48-1.13,2.26-1.65,.63-.42,1.27-.64,1.9-.64s1.28,.23,1.87,.74c1.28,1.09,2.52,2.26,3.65,3.5,.95,1.04,1.71,2.24,2.61,3.43,1.9-.93,3.73-1.94,5.65-2.74,1.36-.56,1.86-1.38,2.05-2.85,2.3-18.42,4.62-36.83,7.06-55.23,2.33-17.56,4.85-35.09,7.22-52.64,1.77-13.06,3.44-26.14,5.14-39.22,.15-1.15,.22-2.31,.32-3.46,.02-.27,0-.53,0-.8l-.22-.11c-.39,.42-.85,.8-1.15,1.27-1.64,2.61-3.29,5.2-4.83,7.86-3.12,5.37-5.02,11.3-7.62,16.9-2.24,4.84-4.56,9.65-7.06,14.36-.96,1.81-2.51,3.31-3.79,4.95-4.11-4.29-7.13-8.89-7.55-14.81-.12-1.63-.29-3.27-.55-4.88-.23-1.41-.47-2.86-.99-4.18-1.12-2.82-1.03-5.57,.32-8.21,2.11-4.12,4.18-8.28,6.59-12.22,8.39-13.71,16.96-27.31,25.37-41.01,4.36-7.1,8.54-14.31,12.76-21.49,.42-.72,.73-1.61,.77-2.44,.04-.94-.39-1.47-1.12-1.47-.21,0-.45,.05-.71,.14-1.1,.4-2.19,.94-3.14,1.62-1.93,1.38-3.74,2.93-5.65,4.34-.9,.67-1.9,1.23-2.91,1.72-.66,.32-1.3,.47-1.94,.47-.92,0-1.82-.33-2.69-.95-1.77-1.27-2.74-3.04-3.34-5.07-.93-3.14-1.19-6.38-1.46-9.62-.39-4.76-.78-9.52-1.1-14.28-.07-1.03,0-2.1,.19-3.11,.16-.83,.65-1.27,1.33-1.27,.22,0,.45,.04,.71,.13,.87,.3,1.74,.69,2.51,1.19,2.12,1.35,4.14,2.86,6.29,4.15,1.27,.76,2.67,1.36,4.09,1.78,.64,.19,1.28,.27,1.9,.27,1.48,0,2.91-.49,4.19-1.33,3.05-2,5.99-4.16,8.96-6.28,.19-.13,.29-.48,.31-.73,.49-6.6,1.03-13.2,1.41-19.8,.13-2.24,.04-4.51-.67-6.71-.47-1.45-.13-2.94,.49-4.3,2.1-4.66,5.55-7.94,10.35-9.69,1-.37,1.98-.55,2.92-.55m3.04,29.42c.29,0,.68-.12,.91-.28,1.51-.99,3.01-1.99,4.44-3.09,1.13-.88,2.21-1.84,3.2-2.88,.92-.97,.69-1.7-.62-1.97-1.21-.25-2.45-.36-3.69-.39-.03,0-.05,0-.08,0-1.07,0-1.96,.53-2.56,1.45-1.08,1.67-1.83,3.49-2.17,5.22-.04,.38-.09,.52-.06,.65,.08,.43,.07,1.02,.34,1.22,.07,.05,.17,.07,.29,.07m-30.52,246.16c.15,0,.31,0,.48-.02,.39-.03,.79-.06,1.17-.15,4.21-1.07,8.42-2.14,12.63-3.23,.59-.15,1.17-.34,1.83-.53-.18-.56-.29-1.03-.47-1.46-.48-1.18-1-2.34-1.49-3.51-1.19-2.84-1.51-5.77-.85-8.8,.59-2.74,1.84-5.2,3.15-7.65,1.1-2.06,2.2-4.15,3-6.34,1.63-4.51,2.17-9.29,3.07-13.98,1.75-9.11,3.54-18.21,5.31-27.31,.29-1.48,.51-2.98,.8-4.63-.84,.08-1.49,.1-2.11,.22-2,.38-3.99,.78-5.97,1.22-.34,.07-.66,.11-.96,.11-1.12,0-2.04-.49-2.76-1.49-1.47-2.04-2.95-4.08-4.31-6.19-.71-1.11-1.21-2.36-1.76-3.57-.57-1.27-.27-2.37,.81-3.26,.5-.41,1-.84,1.53-1.21,3.22-2.26,5.51-5.24,6.91-8.91,1.99-5.22,5-9.74,9.16-13.47,3.33-2.99,5.64-6.67,7.36-10.75,.39-.92,.63-1.94,.78-2.93,.12-.79-.05-1.14-.57-1.14-.17,0-.38,.04-.62,.11-.81,.24-1.58,.59-2.36,.92-1.43,.61-2.82,1.31-4.27,1.84-.8,.29-1.64,.45-2.48,.45-.51,0-1.02-.06-1.53-.17-2.17-.5-3.65-1.94-4.63-3.82-2.54-4.83-3.42-9.98-2.49-15.36,.55-3.19,3.13-5.34,6.34-5.43,.18,0,.36,0,.54,0,1.34,0,2.68,.12,4.03,.19,2.37,.13,4.74,.38,7.11,.39h.04c4.15,0,7.35-1.79,9.48-5.43,1.29-2.2,2.14-4.56,2.62-7.03,.31-1.6,.45-3.25,.53-4.88,.07-1.52-.55-2.08-2.07-2.19-.09,0-.18,0-.27,0-1.23,0-2.12,.63-2.52,1.77-.52,1.48-.9,3.03-1.2,4.57-.42,2.14-.6,4.32-1.07,6.44-.71,3.23-2.39,4.68-5.39,4.68-.33,0-.67-.02-1.03-.05-1.38-.13-2.75-.33-4.1-.64-2.33-.54-4.55-1.35-6.44-2.89-.99-.81-1.73-1.78-1.87-3.11-.25-2.3-.5-4.61-.79-6.9-.49-3.89-.08-7.54,2.44-10.76,3.18-4.08,6.26-8.24,9.43-12.32,.79-1.02,1.76-1.91,2.71-2.79,.64-.59,1.38-.86,2.2-.86,.29,0,.58,.03,.89,.1,1.48,.32,2.63,1.16,3.32,2.43,.9,1.65,1.65,3.39,2.33,5.15,.21,.55,.43,.79,.82,.79,.13,0,.28-.03,.46-.08,1.05-.33,2.12-.59,3.16-.96,1.79-.64,2.27-1.42,2.26-3.32-.01-3.97-.8-7.74-2.81-11.21-.76-1.31-.97-2.72-.55-4.17,.66-2.32,1.58-4.54,2.99-6.51,1.63-2.3,3.69-3.72,6.5-3.72,.27,0,.55,.01,.83,.04,.15,.01,.3,.02,.46,.02,.73,0,1.54-.15,2.04-.54,2.95-2.29,4.93-5.34,6.05-8.88,.29-.92-.06-1.48-.74-1.48-.24,0-.51,.07-.82,.22-1.11,.54-2.19,1.18-3.19,1.91-4.63,3.38-8.78,7.3-12.87,11.3-9.04,8.85-17.7,18.05-25.41,28.1-4.61,6.01-8.54,12.43-11.03,19.65-2.17,6.31-3.47,12.83-4.52,19.39-1.54,9.64-3.01,19.29-4.33,28.95-2.62,19.12-4.8,38.29-6.32,57.53-1.21,15.37-2.17,30.75-1.73,46.18,.08,2.96,.29,5.93,.58,8.88,.18,1.83,.95,2.51,2.61,2.51M149.36,116.66c.21,0,.42-.09,.65-.29,.43-.37,.85-.76,1.18-1.21,3.73-5.01,7.34-10.11,10.19-15.69,.73-1.44,1.18-3.04,1.6-4.61,.16-.62-.12-1.02-.59-1.02-.17,0-.36,.05-.57,.16-.89,.46-1.76,1.03-2.52,1.7-3.01,2.64-5.62,5.65-7.8,9.01-1.62,2.5-3.02,5.11-3.45,7.72-.25,1.82-.04,2.97,.52,3.73,.24,.33,.51,.5,.79,.5m-29.15,59.33c-.36,.23-.5,.28-.58,.37-.98,1.05-2,2.07-2.89,3.19-.53,.66-.92,1.47-1.22,2.27-.15,.41,.03,.95,.07,1.44,.48-.13,1.06-.15,1.44-.43,1.5-1.11,2.44-2.64,2.91-4.43,.19-.71,.18-1.47,.28-2.41m9.99,63.46c.07,0,.13,0,.2-.02,.39-.06,.76-.09,1.12-.09,2.03,0,3.64,.96,5,2.58,1.43,1.71,2.37,3.7,3.22,5.74,.75,1.8,1.52,3.59,2.3,5.37,.16,.37,.43,.7,.64,1.04l.17-.04c.03-.26,.09-.53,.08-.79-.11-2.43-.18-4.85-.37-7.27-.37-4.84-.83-9.67-1.21-14.52-.08-1.04-.18-1.45-.65-1.45-.25,0-.59,.11-1.09,.31-.13,.05-.26,.1-.39,.17-3.66,1.87-6.84,4.39-9.69,7.33-.33,.34-.43,.92-.64,1.38,.43,.08,.89,.26,1.31,.26m-10.77,32.43c.33,0,.71-.24,1.1-.72,1.08-1.33,2.06-2.75,2.92-4.23,.41-.69,.66-1.62,.6-2.41-.21-2.78-.9-5.46-2.38-7.85-.3-.48-1.01-1.03-1.49-1.03-.02,0-.04,0-.06,0-.5,.05-1.13,.76-1.33,1.31-.48,1.34-.75,2.76-1.1,4.15l.16,.04c-.02,.56-.1,1.13-.05,1.69,.22,2.61,.37,5.23,.74,7.81,.12,.82,.45,1.24,.88,1.24m23.24-13.15c-2.17,4.49-4.28,8.83-6.37,13.18-.22,.46-.37,.95-.5,1.44-.21,.84,.05,1.24,.9,1.37,.67,.11,1.35,.16,2.02,.23,.21,.02,.4,.03,.57,.03,1.09,0,1.6-.41,1.76-1.69,.61-4.79,1.07-9.59,1.61-14.56m-39.84,96.47c.32,0,.68-.09,1.09-.27,1.33-.59,2.65-1.31,3.79-2.21,3.17-2.51,6.25-5.13,9.33-7.76,.41-.35,.78-.5,1.2-.5,.19,0,.39,.03,.62,.09,3.99,1.03,8,2,12,3.02,1.03,.26,2.15,.44,3.02,.99,2.33,1.46,3.97,3.58,5.11,6.08,.56,1.23,.43,2.41-.49,3.39-.96,1.03-1.96,2.04-3.07,2.9-1.85,1.43-3.81,2.74-5.72,4.1-1.37,.98-2.59,2.11-3.29,3.68-.5,1.12-.2,1.98,.89,2.56,.5,.26,1.03,.48,1.57,.62,2.22,.55,4.46,1.01,6.68,1.59,3.52,.92,7.11,1.68,9.98,4.16,.36,.31,.73,.45,1.11,.45s.77-.15,1.15-.41c.32-.23,.67-.44,.94-.73,3.33-3.46,6.66-6.92,9.96-10.41,.38-.4,.65-.92,.95-1.4,.68-1.11,.6-2.23-.16-3.25-.51-.67-1.05-1.35-1.71-1.87-3.49-2.73-7-5.45-10.54-8.11-9.63-7.23-20.32-12.12-32.09-14.72-.52-.11-.98-.18-1.41-.18-.96,0-1.75,.34-2.59,1.23-2.24,2.39-4.71,4.56-6.98,6.92-1.59,1.66-2.67,3.65-2.88,6.02,0,.71-.05,1.42,.02,2.11,.12,1.23,.65,1.9,1.53,1.9m15.83,27.42c.11,0,.24-.02,.38-.07,1.3-.4,2.63-.89,3.78-1.6,1.18-.73,1.44-2.07,.76-3.29-.44-.8-1.07-1.52-1.73-2.16-.39-.38-.74-.58-1.06-.58-.41,0-.75,.33-1.02,1-.69,1.66-1.23,3.39-1.84,5.09-.05,1.07,.15,1.62,.71,1.62m-7.48,55.15c2.75-1.83,5.38-3.76,8.01-5.7,.73-.54,.89-1.33,.72-2.12-.45-2.06-.97-4.1-1.52-6.14-.12-.44-.45-.82-.68-1.23h-.31c-2.48,4.87-4.28,10.03-6.22,15.19m-20.2,21.13c.94,0,1.85-.36,2.78-1.07,2.91-2.21,5.29-4.92,7.57-7.74,.15-.18,.23-.42,.34-.62l-.13-.18c-.61,.25-1.22,.49-1.81,.77-.94,.43-1.91,.69-2.88,.69-.6,0-1.2-.09-1.81-.3-3.14-1.06-4.93-4.71-3.96-8.1,.78-2.73,2.43-4.88,4.66-6.6,1.01-.78,1.57-2.31,1.1-3.69-.57,.45-1.11,.76-1.5,1.21-2.51,2.87-5.13,5.66-7.42,8.7-2.17,2.88-3.98,6.02-5.95,9.05-.58,.9-.38,1.67,.31,2.44,1.84,2.05,4.07,3.54,6.48,4.83,.78,.42,1.52,.63,2.23,.63M110.72,0c-2.12,0-4.25,.39-6.35,1.15-7.26,2.65-12.81,7.83-16.04,14.97-2.22,4.92-1.71,8.98-.88,11.51,.22,.66,.28,1.65,.2,3.03-.3,5.04-.69,10.21-1.07,15.21l-.02,.31c-1.39,.99-2.75,1.95-4.11,2.87-.19-.09-.38-.19-.55-.29-1-.6-2.06-1.32-3.18-2.08-.91-.62-1.86-1.27-2.87-1.91-1.39-.89-2.95-1.63-4.63-2.21-1.3-.45-2.64-.68-3.97-.68-5.5,0-10.08,3.85-11.15,9.37-.37,1.89-.48,3.8-.35,5.7,.35,5.01,.76,10.07,1.11,14.41v.1c.3,3.49,.62,7.45,1.84,11.55,1.32,4.44,3.71,7.92,7.11,10.35,1.14,.82,2.35,1.46,3.61,1.93-.56,.92-1.12,1.84-1.68,2.76-3.91,6.36-7.92,12.82-11.8,19.06-4.46,7.18-9.08,14.61-13.57,21.96-2.34,3.82-4.33,7.72-6.25,11.49l-.71,1.39c-2.66,5.21-2.91,10.89-.71,16.44,.13,.34,.3,1.41,.42,2.12,.19,1.15,.33,2.45,.45,3.99,.72,9.92,6.22,16.74,10.3,21,1.89,1.98,4.5,3.09,7.22,3.09,.17,0,.34,0,.51-.01,2.9-.15,5.59-1.55,7.38-3.84,.06-.08,.12-.15,.19-.24-.64,4.67-1.29,9.34-1.92,13.91-1.35,9.74-2.75,19.81-4.07,29.74-2.07,15.62-4.08,31.44-5.98,46.56-2.1-1.38-4.49-2.1-7-2.1s-5.15,.8-7.43,2.31l-.17,.11c-.88,.58-2.08,1.37-3.27,2.46-4.91,4.44-8.88,9.71-11.8,15.65-1.87,3.81-2.57,7.87-2.08,12.08,.49,4.17,1.33,7.81,2.56,11.13,.95,2.56,2.03,4.68,3.3,6.49,3.79,5.39,8.64,6.2,11.2,6.2s5.19-.78,7.71-2.32c2.06-1.26,3.86-2.7,5.34-3.95,1.62-1.36,3.26-2.17,5.11-2.52,.62,2.18,1.26,4.41,1.97,6.66,.91,2.87,2.04,5.57,3.03,7.95,1.48,3.55,4.37,5.98,7.82,6.7-2.08,2.14-4.12,4.22-6.19,6.17-.75-3.18-2.88-6.42-6.64-7.9-1.22-.48-2.51-.72-3.83-.72-3.14,0-6.29,1.4-8.44,3.76-1.1,1.2-2.23,2.55-3.56,4.22-.78,.99-1.52,1.97-2.23,2.91-1.22,1.62-2.37,3.14-3.53,4.43-4.61,5.08-8.57,10.43-11.84,15-1.2,1.67-2.52,3.33-3.92,5.09-.68,.85-1.36,1.71-2.02,2.57-.32,.41-.66,.81-1,1.22-1.06,1.28-2.39,2.86-3.53,4.84-2.33,4.05-4.42,8.2-6.19,11.76-1.22,2.44-1.99,4.86-2.31,7.19-1.01,7.44,1.02,14.62,5.87,20.77,4.09,5.18,8.83,6.26,12.09,6.26,1.96,0,3.95-.38,6.09-1.15,5.55-2.02,10.31-5.28,14.16-9.71,.49-.56,.97-1.13,1.45-1.7,.7-.82,1.35-1.6,2-2.31,3.96-4.35,8.07-8.78,12.38-13.34,.82,3.37,2.33,6.61,4.49,9.64,1.1,1.53,3.5,4.9,7.72,6.66-2.55,.91-5.53,2.66-8.13,6.01-3.71,4.79-5.81,10.4-6.21,16.68-.47,7.28,2.74,13.48,8.81,17.02,.55,.32,1.1,.64,1.64,.96,1.81,1.06,3.69,2.17,5.64,3.23,.41,.23,.83,.45,1.25,.67,1.11,.59,2.12,1.13,2.94,1.66,.07,.67,.19,1.33,.37,2,2.22,8.46,7.3,12.82,11.17,14.99,2.91,1.63,6.14,2.49,9.35,2.49,7.87,0,14.72-5.12,17.05-12.74,.61-1.99,1.49-3.91,2.68-5.85,4.75-7.76,10.74-14.89,18.31-21.82,3.66-3.34,6.7-5.41,9.86-6.69,1.09-.45,1.98-.94,2.63-1.3,.18-.1,.43-.24,.52-.29,4.49-2.08,7.3-6.3,7.49-11.29,.03-.75,.07-1.5,.1-2.25,.09-1.83,.19-3.73,.17-5.74-.06-7.82-3.68-14.51-10.21-18.82-.1-.07-.2-.14-.31-.21-.62-.43-1.56-1.08-2.78-1.67-.42-.2-.84-.4-1.26-.6,.88-.39,1.76-.79,2.64-1.18,1.11-.5,2.07-1.04,2.85-1.47,.29-.16,.57-.32,.86-.48,3.09-1.64,5.7-3.81,7.8-6.49,2.21,.7,4.48,1.06,6.8,1.06,2.58,0,5.25-.45,7.93-1.33,4.37-1.44,8.76-2.69,12.85-3.83,1.58-.44,3.29-.78,5.09-1.02,3.5-.46,6.29-1.98,8.32-4.52,.5-.63,.99-1.27,1.48-1.91,.5-.65,.97-1.27,1.42-1.83l.29-.35c.15-.19,.35-.43,.48-.58,1.26-.97,4.11-3.41,4.66-7.87,.04-.29,.07-.58,.11-.87,.2-1.56,.43-3.33,.46-5.29,.08-7.11-2.12-12.94-6.55-17.32-1.33-1.31-2.66-2.37-3.84-3.3l-.28-.22c-1.06-.84-2.11-1.64-3.13-2.42-1.84-1.4-3.57-2.72-5.12-4.08-3.71-3.26-7.69-6.29-12.16-9.28-6.27-4.18-12.27-6.85-18.36-8.15-.89-.19-1.78-.38-2.67-.57,.25-.54,.48-1.08,.69-1.61,.6,.14,1.22,.25,1.88,.33,3.91,.45,7.74,.87,11.63,1.06,.49,.02,.98,.04,1.46,.04,4.9,0,9.45-1.19,13.53-3.52,4.96-2.84,9.46-6.56,13.74-11.38,3.19-3.59,4.77-7.99,4.57-12.74v-.27c-.06-1.25-.13-2.81-.4-4.49-1.34-8.11-4.3-14.58-9.05-19.76-3.11-3.39-6.73-5.34-10.78-5.8l-.37-.04c-2.04-.23-4.36-.5-6.82-.5-.54,0-1.08,.01-1.59,.04-.47,.02-.93,.06-1.38,.09,.43-4.98,.74-10.63,.42-16.53-.06-1.1-.06-1.89-.02-2.36,.13-.24,.33-.59,.49-.86,.2-.35,.4-.7,.59-1.04,.36-.66,.79-1.37,1.24-2.12,.81-1.35,1.73-2.88,2.56-4.59,3.03-6.26,2.52-12.99-1.45-18.97-2.04-3.08-4.76-5.55-8.06-7.34-3.19-1.72-6.4-3.05-9.41-4.13,2.24-.45,4.29-1.38,6.07-2.74,4.49-3.45,7.66-6.86,10-10.75,3.85-6.41,3.53-13.73-.87-19.59-1.82-2.42-3.85-4.39-5.64-6.13l-.06-.06c-1.12-1.08-2.25-2.03-3.24-2.87-.43-.36-.84-.71-1.23-1.05-.74-1.24-1.88-2.68-3.61-3.8,2.12-.86,4.37-1.72,6.78-2.6l.76-.28c2.45-.9,4.57-1.67,6.32-1.74,3.35-.13,11.38-1.54,13.63-11.8,.93-4.24,.71-8.11,.42-11-.35-3.46-1.33-6.83-2.91-10.04,1.52-1.95,2.8-3.53,4.03-4.96,1.09-1.27,2.19-2.51,3.35-3.83,1.44-1.63,2.93-3.32,4.39-5.05,3.21-3.8,5.07-8.17,5.54-12.99,1.09-11.13-4.7-22.07-14.76-27.92,1.9-3.15,2.8-6.26,3.19-8.81,.55-3.58,.93-7.19,1.13-10.74,.32-5.75-.19-10.87-1.55-15.65-1.51-5.28-4.09-9.7-7.69-13.13-3.44-3.28-6.95-3.97-9.29-3.97s-6.65,.69-10.29,5.31c-1.23,1.56-2.34,3.34-3.39,5.42l-.55,1.1c-1.32,2.64-2.57,5.14-4.05,6.79-.35,.39-.71,.79-1.07,1.19l-.04-.07c-1.09-1.77-2.21-3.6-3.56-5.47-2.68-3.71-6.2-6.32-10.45-7.76-1.6-.54-2.72-1.51-3.53-3.05-1.05-2-2.35-3.64-3.87-4.91-.8-2.17-2.14-4.17-3.95-5.87-3.49-3.28-7.73-5.02-12.25-5.02h0Zm-12.93,173.42c.07-.53,.14-1.05,.22-1.58,.29-2.09,.58-4.2,.89-6.36,.94,.88,1.98,1.65,3.08,2.28-1.55,1.77-2.94,3.66-4.19,5.66h0Zm-7.7,83.59c.28-9.58,.94-19.1,1.66-28.22,.36-4.51,.75-9.06,1.19-13.67,1.81,2,4.12,3.38,6.66,4.01-.17,.87-.34,1.74-.51,2.61-1.06,5.43-2.12,10.85-3.16,16.28-.24,1.27-.46,2.52-.66,3.72-.55,3.19-1.06,6.2-1.99,8.75-.53,1.48-1.37,3.08-2.41,5.02-.26,.49-.53,.99-.79,1.49h0Zm54.79,108.82c.32-.33,.63-.65,.91-.96,.27-.29,.53-.59,.77-.9,.14,.11,.29,.22,.44,.34-.55,.58-1.1,1.15-1.64,1.71-.16-.07-.32-.13-.49-.19h0Z"/></g></g></g></g></svg>