<?xml version="1.0" encoding="UTF-8"?><svg xmlns="http://www.w3.org/2000/svg" xmlns:xlink="http://www.w3.org/1999/xlink" viewBox="0 0 1149.95 342.46"><defs><style>.e{fill:#862c31;}.f{font-size:39.43px;}.g{fill:#f5f9ef;}.h{font-size:112.67px;}.i{letter-spacing:-.07em;}.j{letter-spacing:-.02em;}.k{fill:url(#d);}.l{fill:#fff;font-family:RussoOne-Regular, Russo One;}</style><radialGradient id="d" cx="194.54" cy="187.1" fx="194.54" fy="187.1" r="125.06" gradientTransform="matrix(1, 0, 0, 1, 0, 0)" gradientUnits="userSpaceOnUse"><stop offset=".55" stop-color="#862c31"/><stop offset=".62" stop-color="#882f34"/><stop offset=".68" stop-color="#8e3b3f"/><stop offset=".74" stop-color="#994e52"/><stop offset=".8" stop-color="#a8686c"/><stop offset=".86" stop-color="#bc8b8d"/><stop offset=".92" stop-color="#d4b5b6"/><stop offset=".97" stop-color="#f0e6e6"/><stop offset="1" stop-color="#fff"/></radialGradient></defs><g id="a"/><g id="b"><g id="c"><g><path class="k" d="M317.6,164.71c-55.72-7.44-100.76-48.63-113.87-102.34h0c-3.03-.22-6.09-.33-9.18-.33s-6.15,.11-9.18,.33h0c-13.11,53.71-58.15,94.9-113.87,102.34-1.31,7.26-2,14.74-2,22.39s.69,15.13,2,22.39c55.72,7.43,100.76,48.62,113.87,102.33,3.04,.22,6.09,.33,9.18,.33s6.15-.11,9.18-.33c13.12-53.71,58.15-94.91,113.87-102.33,1.31-7.27,2-14.75,2-22.39s-.69-15.13-2-22.39Zm-123.06,58.44c-19.91,0-36.06-16.14-36.06-36.06s16.15-36.06,36.06-36.06,36.06,16.15,36.06,36.06-16.15,36.06-36.06,36.06Z"/><g><path class="e" d="M77.83,158.66c.96-3.97,2.13-7.9,3.49-11.74,.21-.6,.43-1.2,.65-1.8,.27-.72,.55-1.44,.83-2.17,.32-.8,.62-1.53,.92-2.27,.31-.74,.62-1.47,.94-2.2,.01-.03,.03-.06,.04-.1,.31-.69,.62-1.37,.94-2.05,2.25-4.81,4.85-9.52,7.71-13.98,.32-.49,.64-1,.98-1.5,1.03-1.55,2.07-3.04,3.1-4.46,.42-.57,.86-1.16,1.3-1.74,.43-.57,.87-1.14,1.31-1.71,.6-.77,1.22-1.53,1.84-2.29,.46-.55,.9-1.08,1.35-1.6,.49-.57,.96-1.11,1.44-1.64l1-1.12c.3-.35,.59-.66,.88-.96,1.01-1.08,2.02-2.13,3.06-3.17,10.66-10.66,23.03-19.12,36.78-25.14l1.23-.53c9.94-4.22,20.36-7.05,31.04-8.46-6.87,22.73-19.77,43.07-37.59,59.17-17.95,16.21-39.69,27.01-63.24,31.45Z"/><path class="g" d="M171.31,74.3c-7.03,18.76-18.46,35.58-33.57,49.22-15.24,13.76-33.31,23.46-52.9,28.49,.37-1.15,.75-2.29,1.15-3.42,.21-.58,.42-1.17,.62-1.71,.27-.73,.56-1.46,.84-2.18,.28-.7,.56-1.4,.85-2.09,.3-.71,.6-1.41,.91-2.11,.02-.04,.03-.08,.05-.12,.29-.65,.59-1.29,.88-1.92,2.16-4.62,4.65-9.14,7.38-13.4,.31-.48,.62-.97,.95-1.46,.98-1.48,1.98-2.91,2.94-4.24,.42-.57,.84-1.15,1.27-1.71,.41-.54,.83-1.09,1.26-1.63,.57-.73,1.16-1.45,1.75-2.18,.42-.51,.85-1.02,1.29-1.53l.05-.05c.44-.52,.89-1.03,1.35-1.55l.47-.52,.53-.6,.07-.08c.2-.23,.42-.47,.68-.74,.04-.04,.07-.08,.11-.12,.9-.97,1.87-1.97,2.88-2.98,10.21-10.21,22.06-18.31,35.22-24.09,.22-.09,.43-.19,.65-.28l.55-.24c7.04-2.98,14.32-5.25,21.76-6.77m14.04-11.93c-13.99,1.01-27.34,4.34-39.68,9.57-.42,.18-.85,.37-1.27,.55-14.38,6.3-27.35,15.23-38.3,26.18-1.06,1.06-2.11,2.14-3.13,3.24-.35,.36-.69,.73-1.01,1.1-.33,.38-.67,.74-1,1.12-.5,.56-.99,1.13-1.48,1.7-.49,.57-.97,1.15-1.45,1.72-.63,.78-1.26,1.56-1.88,2.34-.47,.59-.92,1.19-1.38,1.79s-.9,1.21-1.35,1.81c-1.1,1.51-2.17,3.06-3.22,4.63-.35,.52-.69,1.05-1.03,1.58-2.98,4.66-5.66,9.52-8.02,14.56-.35,.74-.69,1.49-1.03,2.24t0,0c-.33,.76-.66,1.51-.98,2.28-.32,.76-.63,1.53-.94,2.3-.3,.77-.6,1.54-.89,2.32-.23,.62-.46,1.24-.68,1.87-2.22,6.27-3.95,12.76-5.16,19.44,55.72-7.44,100.76-48.63,113.87-102.34h0Z"/></g><g><path class="e" d="M178.66,306.15c-49.09-6.46-89.19-42.5-100.84-90.62,23.54,4.44,45.28,15.23,63.24,31.45,17.82,16.1,30.72,36.44,37.6,59.17Z"/><path class="g" d="M84.86,222.18c19.58,5.03,37.65,14.73,52.88,28.48,15.11,13.65,26.55,30.47,33.58,49.24-20.05-4.07-38.48-13.38-53.96-27.38-15.09-13.64-26.32-31.15-32.49-50.35m-13.38-12.69c10.03,55.45,56.6,98.18,113.87,102.33-13.12-53.71-58.15-94.91-113.87-102.33h0Z"/></g><g><path class="e" d="M194.54,218.19c-17.15,0-31.1-13.95-31.1-31.1s13.95-31.1,31.1-31.1,31.1,13.95,31.1,31.1-13.95,31.1-31.1,31.1Z"/><path class="g" d="M194.54,160.96c14.41,0,26.13,11.72,26.13,26.13s-11.72,26.13-26.13,26.13-26.13-11.72-26.13-26.13,11.72-26.13,26.13-26.13m0-9.93c-19.91,0-36.06,16.15-36.06,36.06s16.15,36.06,36.06,36.06,36.06-16.14,36.06-36.06-16.15-36.06-36.06-36.06h0Z"/></g><g><path class="e" d="M210.41,306.15c6.87-22.73,19.78-43.08,37.6-59.17,17.96-16.22,39.7-27.01,63.24-31.45-11.64,48.12-51.74,84.16-100.84,90.62Z"/><path class="g" d="M304.21,222.18c-6.17,19.2-17.41,36.71-32.49,50.35-15.48,13.99-33.91,23.31-53.96,27.38,7.03-18.77,18.46-35.59,33.58-49.24,15.23-13.76,33.29-23.45,52.88-28.48m13.38-12.69c-55.72,7.43-100.76,48.62-113.87,102.33,57.27-4.15,103.85-46.88,113.87-102.33h0Z"/></g><g><path class="e" d="M311.24,158.66c-23.54-4.45-45.28-15.24-63.24-31.45-17.82-16.1-30.72-36.44-37.59-59.17,26.02,3.45,50.32,15.42,69.05,34.13,1.04,1.04,2.05,2.09,3,3.11,.35,.36,.63,.67,.9,.98l1.03,1.15c.49,.55,.96,1.08,1.42,1.62,.48,.55,.92,1.08,1.36,1.61l.11,.13c.59,.72,1.17,1.45,1.75,2.17,.45,.56,.88,1.13,1.31,1.71,.44,.58,.88,1.18,1.31,1.77,1.01,1.39,2.05,2.88,3.08,4.43,.33,.5,.66,1.01,.99,1.52,2.85,4.45,5.44,9.16,7.7,13.98,1.33,2.85,2.57,5.8,3.68,8.78,.22,.59,.44,1.19,.65,1.79,1.36,3.84,2.52,7.76,3.49,11.73Z"/><path class="g" d="M217.77,74.31c21.9,4.5,42.17,15.36,58.18,31.37,1.01,1.01,1.97,2.01,2.88,2.98,.04,.04,.07,.08,.11,.12,.26,.27,.48,.51,.68,.74,.02,.02,.04,.05,.06,.07l.54,.61,.46,.52c.46,.51,.91,1.03,1.35,1.55l.05,.05c.43,.5,.85,1,1.29,1.53,.59,.73,1.18,1.45,1.76,2.19,.42,.54,.84,1.08,1.25,1.62,.43,.56,.85,1.14,1.25,1.68,.99,1.35,1.98,2.79,2.98,4.28,.32,.48,.63,.97,.93,1.42,2.74,4.28,5.23,8.8,7.39,13.41,1.28,2.73,2.46,5.57,3.52,8.4,.21,.58,.43,1.16,.63,1.73,.4,1.14,.79,2.29,1.16,3.44-19.59-5.03-37.66-14.73-52.9-28.49-15.11-13.64-26.54-30.46-33.56-49.21m-14.05-11.94c13.11,53.71,58.15,94.9,113.87,102.34-1.21-6.68-2.95-13.17-5.16-19.44-.22-.63-.45-1.25-.68-1.87-1.16-3.11-2.44-6.16-3.84-9.15-2.36-5.04-5.04-9.91-8.02-14.56-.34-.53-.68-1.06-1.03-1.58-1.04-1.57-2.11-3.11-3.22-4.63-.44-.6-.9-1.22-1.35-1.81-.45-.6-.91-1.2-1.38-1.79-.62-.79-1.25-1.56-1.88-2.34-.48-.58-.96-1.15-1.45-1.72-.49-.57-.98-1.13-1.48-1.7-.33-.38-.67-.74-1-1.12-.33-.38-.67-.74-1.01-1.1-1.02-1.1-2.06-2.17-3.13-3.24-20.61-20.61-48.37-34.06-79.25-36.3h0Z"/></g><g><path class="e" d="M64.83,338.99c-1.64,0-3.3-.45-4.8-1.29-3.06-1.72-5.11-4.5-6.1-8.26-.17-.67-.23-1.37-.16-2.02,0-.06-.06-.21-.38-.51-.93-.84-2.17-1.5-3.47-2.2l-.84-.45c-1.3-.71-2.57-1.45-3.8-2.17l-1.17-.69c-3.08-1.8-4.65-4.85-4.4-8.6,.24-3.66,1.45-6.91,3.6-9.69,1.4-1.81,3.15-2.93,5.2-3.34,.06-.04,.21-.15,.49-.47,1.37-1.56,2.54-2.96,3.55-4.27,0,0,.94-1.22,1.15-1.49-.16,.04-.31,.09-.47,.13-1.17,.31-2.12,.45-3.01,.45-3.28,0-5.15-2-6.55-3.96-1.34-1.88-2.24-3.87-2.67-5.94-.46-2.18,.1-4.21,1.57-5.7,.36-.36,.71-.73,1.07-1.1,.93-.97,1.88-1.96,2.93-2.92,4.06-3.71,7.91-6.78,11.73-9.35-.14-.07-.28-.14-.41-.21-1.09-.58-1.96-1.34-2.6-2.24-1.31,1.17-2.59,2.45-3.95,3.81-9.36,9.39-17.46,17.87-24.78,25.91-.5,.55-.98,1.12-1.46,1.69-.33,.39-.66,.78-.99,1.16-2.28,2.63-5.11,4.56-8.41,5.76-1.1,.4-2.09,.59-3.04,.59-2.21,0-4.06-.99-5.67-3.03-2.77-3.51-3.94-7.6-3.36-11.81,.17-1.24,.6-2.56,1.27-3.91,1.21-2.43,2.63-5.25,4.2-7.99,.64-1.11,1.42-2.04,2.11-2.87,.26-.31,.52-.62,.77-.94,.46-.59,.92-1.18,1.39-1.76,1-1.25,1.94-2.44,2.82-3.67,2.21-3.09,4.89-6.7,7.98-10.11,.92-1.01,1.76-2.13,2.66-3.32,.49-.66,.99-1.31,1.5-1.95,.89-1.12,1.6-1.97,2.32-2.75,.83-.91,2.09-1.48,3.3-1.48,.48,0,.95,.09,1.38,.26,1.8,.71,2.62,2.58,2.63,4.03,0,1.4-.04,2.55-.15,3.61-.07,.69-.15,1.38-.22,2.07,.25-.17,.49-.34,.73-.51,3.73-2.65,6.92-5.94,10.29-9.42,3.84-3.95,7.64-7.98,11.32-11.87l1.84-1.94c-.29-.05-.62-.1-.96-.14-.36-.05-.73-.1-1.09-.16-.52-.09-1.24-.21-2.01-.6-1.71-.87-2.67-2.35-2.55-3.96,.12-1.7,1.38-3.31,2.99-3.83,.93-.3,2.17-.67,3.51-.87,1.7-.25,3.4-.39,4.86-.51,.08,0,.14-.02,.27-.11,1.9-1.4,3.51-3.12,4.78-5.1-.27-.97-.54-1.93-.8-2.89-3.71,.83-7.42,1.67-11.13,2.51-.28,.06-.56,.17-.83,.26-.21,.07-.42,.14-.63,.21-1.4,.45-2.14,1.27-2.48,2.76-.44,1.96-.83,4-1.21,5.96l-.52,2.67c-.51,2.66-1.04,5.4-2.11,8.12-.35,.89-.85,1.78-1.45,2.57-1.19,1.56-2.61,1.79-3.36,1.79-.62,0-2.71-.19-3.75-2.68-.66-1.58-1.42-3.38-2-5.23-.54-1.7-1.03-3.41-1.5-5.08-.24-.84-.48-1.67-.72-2.51-.93,.24-1.84,.39-2.68,.52-2.04,.3-3.86,1.14-5.56,2.57-.93,.78-2.05,1.68-3.3,2.44-1.21,.74-2.36,1.1-3.54,1.1-1.35,0-3.29-.49-4.94-2.83-.72-1.02-1.31-2.2-1.88-3.72-.76-2.05-1.28-4.32-1.59-6.93-.26-2.25,.11-4.42,1.11-6.46,1.83-3.73,4.33-7.04,7.41-9.83,.64-.58,1.29-1.01,1.87-1.39l.11-.08c1.01-.67,2.13-1.02,3.24-1.02,1.29,0,2.51,.46,3.54,1.33,1.05,.89,2.01,1.82,2.86,2.75,.1,.11,.19,.21,.28,.32,.3-.15,.61-.29,.93-.43,1.51-12.11,3.14-24.98,4.85-37.87,.91-6.88,1.87-13.75,2.82-20.62,.74-5.32,1.48-10.64,2.2-15.97,.55-4.04,1.08-8.08,1.61-12.13-.27,.62-.54,1.24-.83,1.86-1.85,4-3.44,7.22-4.99,10.14-.64,1.2-1.46,2.17-2.19,3.02-.26,.31-.53,.61-.77,.93-.62,.79-1.56,1.28-2.56,1.33-.06,0-.12,0-.17,0-.95,0-1.85-.38-2.51-1.07-2.46-2.57-5.78-6.66-6.2-12.44-.08-1.17-.2-2.18-.34-3.08-.14-.84-.27-1.62-.49-2.19-1.15-2.9-1.02-5.86,.36-8.56l.51-.99c1.3-2.55,2.65-5.19,4.2-7.73,3.12-5.1,6.27-10.17,9.42-15.25,2.74-4.41,5.48-8.82,8.2-13.25,1.46-2.37,2.9-4.79,4.32-7.2-.88,.4-1.79,.61-2.71,.61-1.37,0-2.68-.44-3.89-1.31-1.74-1.24-2.93-3-3.63-5.36-.74-2.51-.95-4.96-1.14-7.33-.28-3.38-.55-6.7-.78-10.03-.07-1.01,0-2.04,.19-3.06,.43-2.21,2.17-3.7,4.34-3.7,.54,0,1.08,.09,1.62,.28,.91,.31,1.75,.71,2.48,1.18,.64,.41,1.27,.84,1.89,1.26,.82,.56,1.6,1.09,2.39,1.56,.62,.37,1.32,.67,2.03,.88,.12,.04,.24,.05,.35,.05,.39,0,.76-.19,1.01-.35,1.6-1.05,3.15-2.16,4.78-3.33l.19-.13,.13-1.75c.27-3.51,.54-7.14,.75-10.71,.08-1.44,0-2.48-.3-3.38-.56-1.72-.4-3.56,.48-5.49,1.87-4.15,4.96-7.03,9.17-8.57,1.07-.39,2.16-.59,3.22-.59,2.24,0,4.36,.88,6.13,2.54,1.3,1.22,1.9,2.53,2.13,3.68,1.56,.93,2.31,2.34,2.6,2.89,.98,1.86,2.46,3.13,4.41,3.79,2.29,.77,4.11,2.13,5.56,4.14,.86,1.19,1.61,2.42,2.33,3.6l.18,.29c.91,1.48,.54,3.2-.05,4.21-.72,1.24-1.52,2.43-2.42,3.58,1.05-.92,2.1-1.84,3.14-2.76,1.98-1.76,3.86-3.82,5.47-5.62,1.34-1.5,2.31-3.43,3.33-5.48l.38-.75c.62-1.24,1.27-2.27,1.98-3.18,1.54-1.96,3.26-2.37,4.42-2.37,1.44,0,2.81,.6,4.06,1.8,2.04,1.95,3.52,4.5,4.4,7.56,.84,2.94,1.15,6.12,.95,9.73-.13,2.36-.38,4.76-.75,7.13-.54,3.51-2.31,6.45-5.28,8.76,.39-.07,.79-.11,1.19-.11,1.21,0,2.39,.32,3.5,.96,5.86,3.37,9.24,9.69,8.61,16.1-.26,2.63-1.28,5.03-3.05,7.12-.99,1.17-2,2.31-3.01,3.46-.79,.89-1.58,1.79-2.35,2.69-.92,1.08-1.88,2.26-3.01,3.71-.26,.33-.53,.79-.81,1.28l-.07,.11c-.28,.48-.2,.65-.04,.93,1.3,2.22,2.08,4.58,2.33,6.99,.18,1.75,.31,4.08-.23,6.55-.95,4.36-3.9,5.38-6.21,5.47-1.76,.07-3.55,.72-5.45,1.42l-.53,.19c-4.36,1.59-7.97,3.1-11.23,4.71,1.13,.69,2.02,1.53,2.66,2.49,.12,0,.22-.01,.3-.01,.09,0,.27,0,.37,.01,2.43,.2,3.58,1.51,4.13,2.7,.04,.04,.09,.08,.13,.12,.41,.37,.83,.72,1.25,1.08,.68,.57,1.38,1.17,2.07,1.83,1.26,1.22,2.5,2.43,3.6,3.89,2.21,2.94,2.36,6.49,.41,9.73-1.39,2.32-3.33,4.38-6.09,6.5-1.21,.93-2.68,1.4-4.35,1.4-.18,0-.36,0-.54-.02-.73-.04-1.47-.09-2.2-.15-1.03-.07-2.05-.15-3.08-.19h-.16c-.99,0-1.61,.34-2.2,1.23-1.34,2.02-2.32,4.28-3.05,6.22,.08-.05,.15-.11,.23-.16,1.83-1.29,3.8-1.95,5.86-1.95,1.03,0,2.08,.17,3.12,.5,2.76,.87,6.01,2,9.16,3.7,1.79,.96,3.25,2.29,4.35,3.96,2.05,3.09,2.32,6.55,.78,9.75-.51,1.05-1.08,2-1.63,2.92-.32,.53-.63,1.05-.93,1.59-.12,.22-.25,.44-.38,.66-.29,.5-.62,1.07-.69,1.38-.18,.78-.15,1.8-.1,2.78,.25,4.62-.09,9.07-.45,12.82-.08,.84-.17,1.68-.26,2.52,.27-.04,.54-.08,.81-.13,1.35-.21,2.74-.44,4.21-.51,.31-.02,.62-.02,.93-.02,1.51,0,2.95,.16,4.34,.32l.26,.03c1.95,.22,3.74,1.21,5.32,2.93,2.83,3.09,4.6,7,5.42,11.95,.16,.96,.2,1.88,.23,2.7v.19c.11,2.38-.69,4.59-2.29,6.4-2.72,3.06-5.56,5.42-8.68,7.2-2.31,1.32-4.89,1.99-7.68,1.99-.28,0-.56,0-.85-.02-2.59-.12-5.09-.4-7.85-.72-1.28-.15-2.4-.61-3.22-.99-.3-.14-.59-.3-.84-.49-.26,1.66-.71,3.46-1.69,5.18-.68,1.2-1.5,2.16-2.38,2.94,2.36,.49,4.73,.98,7.09,1.49,3.79,.81,7.57,2.5,11.55,5.16,2.98,1.99,5.62,4,8.08,6.17,1.17,1.02,2.42,1.98,3.74,2.98,.71,.54,1.43,1.09,2.13,1.64l.21,.17c.78,.61,1.58,1.25,2.36,2.02,2.42,2.39,3.57,5.51,3.52,9.52-.02,1.36-.34,3.69-.38,3.95-.06,.42-.2,.83-.4,1.2-.27,.48-.84,1.38-1.66,2-.18,.14-.49,.52-.76,.86l-.19,.23c-.36,.45-.71,.9-1.06,1.36-.32,.42-.65,.85-.98,1.26-1.25,1.56-2.96,1.79-3.52,1.86-1.41,.19-2.76,.46-4.01,.8-2.74,.76-5.97,1.68-9.09,2.71-1.51,.5-2.99,.75-4.42,.75-1.93,0-3.81-.46-5.6-1.37-.15-.08-.3-.15-.46-.22-1.33,2.52-3.25,4.46-5.71,5.76-.23,.12-.45,.25-.67,.37-.5,.28-1.08,.6-1.71,.89-1.88,.85-3.77,1.69-5.66,2.53-1.04,.46-2.08,.92-3.11,1.39,2.59,1.2,5.17,2.41,7.75,3.63,.59,.28,1.06,.61,1.43,.87l.28,.19c3.59,2.38,5.5,5.91,5.54,10.21,.01,1.3-.05,2.56-.12,3.79-.03,.54-.05,1.07-.07,1.61-.08,2.17-1.25,3.93-3.19,4.83-.21,.09-.4,.21-.59,.32-.39,.22-.88,.49-1.44,.72-2.56,1.04-5.07,2.73-7.88,5.31-5.5,5.03-9.87,10.24-13.34,15.91-.98,1.61-1.71,3.2-2.22,4.87-1.19,3.88-4.54,6.39-8.53,6.39Zm-4.03-25.26c.48,.39,1.04,.77,1.68,1.15-.54-.46-1.02-.99-1.42-1.57-.09,.14-.18,.28-.26,.42Zm32.42-58.05c.61,.14,1.22,.29,1.83,.45l.62,.16c1.93,.5,4.05,1.04,6.05,2.26,1.86-1.93,3.71-3.87,5.56-5.81-2.71-2.12-4.94-3.84-7.02-5.4,.02,1.38-.5,2.72-1.52,3.8-.74,.79-1.56,1.63-2.54,2.38-.93,.72-1.87,1.38-2.79,2.02-.07,.05-.14,.1-.21,.15Zm5.45-47.25c1.05,.56,1.88,1.31,2.47,2.21,.15-.19,.31-.37,.48-.54,.46-.44,1.08-1,1.92-1.42,.86-.42,1.64-1.05,2.49-2.02-2.83,.39-5.56,.83-8.21,1.33,.28,.15,.57,.3,.85,.45Zm-36.54-69.23c-.74,6.68-1.35,13.14-1.85,19.49-.8,10.16-1.5,21.03-1.19,31.71,.04,1.37,.12,2.78,.23,4.22,1.67-.42,3.35-.85,5.05-1.29-1.04-2.6-1.27-5.27-.69-7.95,.5-2.33,1.52-4.35,2.52-6.22,.79-1.48,1.43-2.7,1.88-3.95,.75-2.06,1.13-4.3,1.54-6.67,.15-.84,.29-1.68,.45-2.52,.72-3.75,1.45-7.5,2.18-11.24,.39-2.01,.79-4.02,1.18-6.03-.19,.04-.39,.08-.58,.13-.48,.1-.95,.16-1.41,.16-1.91,0-3.59-.88-4.74-2.48l-.21-.29c-.96-1.33-1.96-2.71-2.88-4.16-.55-.86-.94-1.73-1.28-2.5l-.19-.42Zm4.86-36.18c-.89,5.67-1.66,10.9-2.34,15.9-.7,5.07-1.33,9.99-1.89,14.79,.25-.32,.55-.62,.88-.9l.15-.13c.37-.3,.74-.61,1.13-.88,1.65-1.16,2.81-2.65,3.54-4.58,1.6-4.21,4.05-7.81,7.29-10.71,.66-.59,1.27-1.25,1.83-1.99-.34,.04-.68,.06-1.02,.06-.62,0-1.24-.07-1.85-.21-2.37-.55-4.28-2.08-5.51-4.42-1.18-2.25-1.92-4.57-2.23-6.94Zm3.25-15.81c-.69,2.17-1.22,4.35-1.65,6.45,.73-.99,1.67-1.79,2.77-2.35-.53-.83-.86-1.73-.96-2.72,0,0-.14-1.26-.15-1.39Zm17.29-25.32c1,.41,1.88,1.04,2.57,1.85-.23-.74-.54-1.44-.92-2.09-.19-.33-.35-.66-.49-1-.39,.42-.78,.83-1.17,1.24Zm-2.31-18.96c-2.04,1.26-3.92,2.21-5.83,2.96-.84,.33-1.08,.72-1.23,1.34-.14,.57-.45,1.79-.46,1.83,2.42-1.94,5-4.03,7.52-6.13Z"/><path class="g" d="M76.93,6.95c1.36,0,2.62,.54,3.75,1.6,.76,.71,1.23,1.57,1.17,2.66-.03,.57,.24,1.05,.79,1.17,1.05,.23,1.62,.95,2.08,1.83,1.4,2.66,3.59,4.52,6.37,5.46,1.69,.57,2.89,1.53,3.86,2.88,.85,1.18,1.6,2.42,2.36,3.66,.09,.15,.02,.47-.09,.65-2.64,4.55-6.46,7.97-10.67,10.99-2.64,1.89-5.39,3.61-8.43,4.8-1.76,.69-2.89,1.9-3.34,3.75-.43,1.73-.89,3.46-1.28,5.2-.21,.95-.07,1.88,.58,2.67,.32,.39,.6,.6,.95,.6,.19,0,.4-.06,.64-.19,.87-.45,1.74-.94,2.49-1.55,3.51-2.82,7.02-5.63,10.46-8.54,4.91-4.14,9.81-8.31,14.61-12.57,2.05-1.82,3.92-3.85,5.75-5.9,1.83-2.05,2.99-4.55,4.22-6.98,.46-.91,.98-1.8,1.61-2.59,.55-.7,1.11-1.05,1.69-1.05,.53,0,1.07,.28,1.66,.84,1.74,1.66,2.8,3.72,3.46,6,.8,2.81,.98,5.69,.82,8.58-.13,2.27-.37,4.54-.71,6.79-.49,3.18-2.31,5.51-4.97,7.25-1.61,1.05-3.17,2.17-4.72,3.31-.52,.38-.97,.87-1.36,1.38-1.56,1.99-3.41,3.64-5.53,4.99-.2,.13-.38,.27-.61,.42,.92,1.43,1.82,2.83,2.76,4.29,.19-.14,.35-.26,.52-.38,2.91-2.18,5.79-4.4,8.73-6.53,.93-.68,1.98-1.21,3.02-1.71,.5-.24,1.01-.36,1.52-.36,.6,0,1.19,.17,1.76,.5,4.35,2.5,7.42,7.34,6.89,12.75-.2,1.99-.98,3.72-2.25,5.22-1.75,2.07-3.58,4.07-5.34,6.13-1.07,1.25-2.1,2.54-3.12,3.84-.43,.55-.78,1.17-1.14,1.79-.85,1.46-.89,2.97-.03,4.43,1.02,1.74,1.67,3.59,1.87,5.59,.19,1.83,.23,3.64-.16,5.45-.39,1.79-1.14,2.67-2.96,2.74-2.5,.1-4.75,.99-7.02,1.82-4.37,1.59-8.68,3.35-12.82,5.48-.52,.27-1.04,.55-1.53,.89-.99,.69-1.11,1.53-.33,2.45,.35,.41,.78,.78,1.22,1.1,.49,.36,1.01,.67,1.54,.98,2.17,1.27,2.77,3.26,1.65,5.53-.55,1.11-1.38,1.99-2.3,2.8-.5,.44-.99,.89-1.46,1.37-.19,.2-.31,.47-.57,.87,.33,0,.59,.05,.82,.05,.1,0,.2,0,.29-.03,.99-.24,1.97-.51,2.95-.8,1.14-.34,1.73-1.16,1.9-2.31,.13-.91,.26-1.83,.41-2.74,.05-.31,.14-.61,.26-.9,.16-.41,.4-.8,.89-.8,.03,0,.05,0,.08,0,.55,.04,1.05,.13,1.3,.79,.16,.43,.55,.81,.91,1.13,1.06,.96,2.21,1.83,3.23,2.83,1.14,1.1,2.29,2.22,3.24,3.48,1.38,1.84,1.39,3.88,.21,5.86-1.33,2.22-3.19,3.97-5.23,5.54-.66,.5-1.43,.69-2.24,.69-.11,0-.22,0-.33,0-1.78-.1-3.56-.27-5.35-.34-.1,0-.2,0-.3,0-2.16,0-3.86,.94-5.09,2.78-1.68,2.52-2.84,5.29-3.84,8.12-.77,2.18-1.35,4.42-1.98,6.65-.12,.43-.06,.9-.09,1.55,.51-.28,.87-.43,1.18-.65,1.89-1.34,3.77-2.7,5.66-4.04,.38-.27,.78-.53,1.16-.8,1.21-.86,2.49-1.31,3.85-1.31,.67,0,1.36,.11,2.07,.34,2.94,.93,5.84,1.97,8.56,3.44,1.26,.68,2.31,1.61,3.11,2.82,1.34,2.02,1.6,4.14,.54,6.32-.72,1.49-1.67,2.88-2.47,4.34-.53,.96-1.17,1.91-1.41,2.95-.27,1.2-.25,2.49-.18,3.74,.22,4.12-.04,8.21-.44,12.3-.2,2.03-.44,4.07-.66,6.1-.02,.21-.05,.43-.08,.74,1.18-.14,2.3-.25,3.42-.4,1.9-.25,3.8-.66,5.71-.75,.25-.01,.51-.02,.76-.02,1.4,0,2.82,.17,4.21,.33,1.28,.15,2.29,.88,3.15,1.82,2.64,2.89,3.93,6.39,4.56,10.17,.13,.81,.16,1.64,.19,2.46,.06,1.5-.43,2.83-1.43,3.94-2.27,2.56-4.83,4.79-7.8,6.49-1.85,1.06-3.87,1.53-5.95,1.53-.23,0-.45,0-.68-.02-2.55-.12-5.08-.41-7.62-.7-.74-.09-1.48-.38-2.17-.69-.76-.35-.82-.91-.22-1.49,.31-.3,.65-.6,1.03-.78,2.06-1.01,3.54-2.66,4.85-4.47,1.12-1.56,2.14-3.19,3.29-4.91-1.42,.12-2.71,.18-3.98,.33-6.02,.72-12,1.7-17.92,3.03-.42,.09-.83,.24-1.22,.42-.9,.45-.97,1.07-.16,1.64,.48,.33,1.03,.56,1.55,.82,1.85,.94,3.71,1.86,5.54,2.83,1.35,.72,1.83,1.9,1.67,3.41-.2,1.85-.52,3.66-1.45,5.3-1.27,2.24-3.34,3.42-5.68,4.23-1.39,.48-2.8,.91-4.2,1.36-.19,.06-.38,.14-.57,.32,.97,.2,1.94,.4,2.91,.6,4.84,1.01,9.69,1.99,14.53,3.03,3.78,.81,7.16,2.52,10.36,4.65,2.7,1.8,5.28,3.74,7.72,5.89,1.91,1.68,4,3.16,6,4.74,.78,.62,1.58,1.24,2.29,1.94,1.95,1.93,2.52,4.39,2.49,7.02-.01,1.17-.34,3.51-.34,3.51,0,0-.36,.65-.71,.92-.6,.45-1.07,1.08-1.55,1.67-.71,.87-1.36,1.78-2.06,2.65-.31,.39-.72,.51-1.26,.58-1.51,.2-3.02,.49-4.49,.9-3.1,.86-6.19,1.75-9.25,2.76-1.13,.37-2.24,.58-3.33,.58-1.36,0-2.69-.31-4.02-.99-1.2-.61-2.49-1.06-3.81-1.61-.22,.48-.45,.93-.63,1.4-.95,2.52-2.52,4.51-4.93,5.78-.73,.39-1.43,.82-2.18,1.16-3.65,1.64-7.32,3.25-10.97,4.9-1.11,.5-2.19,1.06-3.28,1.61-.29,.15-.56,.34-.97,.59,.35,.25,.6,.49,.9,.63,1.6,.74,3.22,1.45,4.82,2.19,2.81,1.3,5.61,2.61,8.41,3.94,.46,.22,.86,.54,1.29,.82,2.63,1.74,3.96,4.21,3.98,7.34,.01,1.75-.12,3.49-.19,5.24-.03,.84-.4,1.44-1.18,1.8-.64,.3-1.23,.7-1.88,.97-3.38,1.38-6.25,3.52-8.92,5.96-5.39,4.93-10.13,10.41-13.96,16.66-1.09,1.78-1.97,3.66-2.58,5.66-.76,2.49-2.86,3.94-5.21,3.94-1.02,0-2.08-.27-3.1-.84-2.4-1.35-3.75-3.5-4.44-6.12-.06-.24-.09-.51-.07-.76,.16-1.45-.48-2.55-1.51-3.47-1.48-1.33-3.25-2.18-4.97-3.12-1.65-.9-3.26-1.87-4.89-2.82-2.06-1.2-2.83-3.06-2.68-5.37,.19-2.88,1.1-5.49,2.88-7.78,.81-1.05,1.82-1.81,3.18-2.07,.98-.19,1.74-.85,2.37-1.57,1.27-1.44,2.51-2.92,3.69-4.43,1.85-2.39,3.66-4.82,5.92-6.86,1.29-1.16,2.71-2.05,4.48-2.33,.49-.08,.99-.37,1.4-.68,.44-.34,.35-.84-.18-1-.28-.08-.6-.14-.91-.14-.18,0-.36,.02-.52,.07-2.37,.69-4.72,1.46-7.08,2.2-2.02,.64-4.02,1.36-6.06,1.9-.83,.22-1.52,.34-2.12,.34-1.51,0-2.47-.75-3.72-2.5-1-1.4-1.74-2.93-2.1-4.63-.21-.98-.06-1.83,.65-2.56,1.28-1.3,2.51-2.66,3.86-3.89,3.93-3.58,8.04-6.92,12.51-9.82,1.2-.78,2.46-1.39,3.85-1.74,.09-.02,.18-.03,.27-.03,.22,0,.46,.05,.68,.05-.08,.31-.08,.66-.25,.91-.57,.82-1.22,1.58-1.79,2.41-.51,.74-1.03,1.48-1.41,2.29-.37,.79-.06,1.32,.78,1.58,.4,.13,.8,.19,1.18,.19,.78,0,1.53-.26,2.22-.79,1.42-1.09,2.23-2.59,2.65-4.27,.35-1.42,.52-2.89,.78-4.45-1.41-.07-2.7-.14-3.99-.21-1.9-.11-3.81-.18-5.64-.79-.41-.14-.81-.3-1.19-.51-1.49-.8-2.15-2.05-2.04-3.74,.03-.39-.08-.79-.12-1.19-.38,.16-.82,.25-1.14,.48-2.67,1.96-5.02,4.28-7.36,6.62-8.47,8.51-16.81,17.14-24.89,26.02-.86,.94-1.66,1.94-2.5,2.9-1.91,2.2-4.24,3.79-6.97,4.78-.69,.25-1.3,.38-1.86,.38-1.12,0-2.02-.54-2.94-1.71-2.12-2.69-3.11-5.76-2.65-9.19,.13-.97,.5-1.95,.94-2.84,1.31-2.63,2.64-5.26,4.11-7.81,.71-1.23,1.72-2.28,2.6-3.4,1.43-1.84,2.93-3.64,4.29-5.54,2.43-3.39,4.92-6.71,7.73-9.8,1.55-1.71,2.86-3.64,4.3-5.45,.69-.88,1.4-1.74,2.16-2.56,.16-.18,.5-.35,.73-.35,.04,0,.08,0,.12,.02,.22,.09,.42,.53,.42,.82,0,1.08-.02,2.16-.13,3.23-.25,2.48-.57,4.96-.84,7.44-.04,.38,0,.77,0,1.33,.57-.21,1.08-.31,1.49-.57,1.8-1.12,3.61-2.23,5.33-3.46,4.01-2.85,7.42-6.37,10.83-9.88,4.69-4.83,9.31-9.75,13.94-14.64,.52-.55,.98-1.18,1.41-1.81,.69-1,.56-1.62-.56-2.11-.96-.42-2-.68-3.03-.92-.86-.2-1.75-.27-2.62-.42-.35-.06-.71-.12-1.02-.27-.27-.14-.67-.42-.65-.62,.02-.28,.32-.68,.58-.76,.96-.31,1.95-.59,2.95-.74,1.53-.23,3.08-.36,4.62-.48,.78-.06,1.45-.33,2.06-.78,2.27-1.67,4.16-3.7,5.68-6.08,.52-.82,.69-1.67,.42-2.63-.58-2.04-1.12-4.09-1.65-6.06-.12-.06-.16-.1-.19-.1h0c-4.75,1.07-9.49,2.13-14.23,3.21-.59,.13-1.16,.36-1.74,.54-2.63,.84-4.22,2.66-4.82,5.32-.57,2.57-1.05,5.16-1.56,7.74-.56,2.87-1.05,5.76-2.13,8.5-.24,.61-.58,1.2-.98,1.73-.21,.28-.41,.42-.59,.42-.21,0-.39-.18-.54-.55-.68-1.63-1.36-3.26-1.89-4.94-.87-2.77-1.62-5.58-2.45-8.36-.21-.71-.53-1.39-.85-2.06-.12-.26-.32-.43-.57-.43-.11,0-.23,.03-.36,.11-1.4,.78-2.96,1.06-4.5,1.29-2.77,.41-5.16,1.56-7.29,3.34-.92,.77-1.86,1.52-2.88,2.14-.64,.39-1.2,.59-1.73,.59-.78,0-1.46-.44-2.09-1.35-.62-.89-1.08-1.91-1.46-2.93-.73-1.97-1.15-4.03-1.39-6.13-.19-1.59,.08-3.09,.78-4.52,1.65-3.35,3.86-6.28,6.63-8.79,.48-.43,1.03-.79,1.57-1.15,.44-.29,.88-.44,1.32-.44s.89,.16,1.3,.51c.89,.76,1.75,1.57,2.53,2.43,.66,.72,1.19,1.56,1.81,2.38,1.32-.65,2.59-1.35,3.93-1.9,.95-.39,1.29-.96,1.42-1.98,1.6-12.8,3.21-25.59,4.91-38.37,1.62-12.2,3.37-24.38,5.02-36.57,1.23-9.08,2.39-18.16,3.57-27.25,.1-.8,.15-1.6,.22-2.41,.02-.18,0-.37,0-.56l-.15-.07c-.27,.29-.59,.55-.8,.88-1.14,1.81-2.28,3.62-3.36,5.46-2.17,3.73-3.49,7.85-5.29,11.74-1.56,3.36-3.17,6.7-4.91,9.98-.67,1.26-1.74,2.3-2.63,3.44-2.85-2.98-4.95-6.18-5.25-10.29-.08-1.13-.2-2.27-.38-3.39-.16-.98-.33-1.99-.69-2.91-.78-1.96-.72-3.87,.22-5.7,1.46-2.86,2.9-5.75,4.58-8.49,5.83-9.53,11.78-18.97,17.62-28.49,3.03-4.93,5.93-9.94,8.86-14.93,.29-.5,.51-1.12,.54-1.7,.03-.65-.27-1.02-.78-1.02-.15,0-.32,.03-.5,.1-.76,.28-1.52,.65-2.18,1.13-1.34,.96-2.6,2.04-3.92,3.02-.63,.46-1.32,.85-2.02,1.2-.46,.22-.9,.33-1.35,.33-.64,0-1.27-.23-1.87-.66-1.23-.88-1.9-2.11-2.32-3.52-.65-2.18-.83-4.43-1.01-6.68-.27-3.31-.54-6.61-.77-9.92-.05-.72,0-1.46,.14-2.16,.11-.58,.45-.88,.93-.88,.15,0,.31,.03,.49,.09,.61,.21,1.21,.48,1.75,.83,1.47,.94,2.88,1.99,4.37,2.88,.88,.53,1.86,.95,2.84,1.23,.44,.13,.89,.19,1.32,.19,1.03,0,2.02-.34,2.91-.92,2.12-1.39,4.16-2.89,6.22-4.36,.13-.09,.2-.33,.22-.51,.34-4.58,.71-9.17,.98-13.76,.09-1.56,.03-3.13-.47-4.66-.33-1.01-.09-2.04,.34-2.99,1.46-3.24,3.86-5.52,7.19-6.73,.7-.25,1.37-.38,2.03-.38m2.11,20.44c.2,0,.47-.09,.63-.19,1.05-.68,2.09-1.38,3.08-2.15,.79-.61,1.54-1.28,2.22-2,.64-.67,.48-1.18-.43-1.37-.84-.18-1.71-.25-2.56-.27h-.05c-.74,0-1.36,.37-1.78,1.01-.75,1.16-1.27,2.42-1.51,3.62-.03,.26-.06,.36-.04,.45,.06,.3,.05,.71,.23,.84,.05,.04,.12,.05,.2,.05m-21.21,171.03c.11,0,.22,0,.33-.01,.27-.02,.55-.04,.82-.11,2.93-.74,5.85-1.49,8.78-2.24,.41-.11,.81-.23,1.27-.37-.12-.39-.2-.71-.33-1.02-.34-.82-.7-1.62-1.04-2.44-.82-1.98-1.05-4.01-.59-6.11,.41-1.91,1.28-3.61,2.19-5.31,.77-1.43,1.53-2.88,2.08-4.4,1.13-3.14,1.51-6.46,2.13-9.72,1.22-6.33,2.46-12.65,3.69-18.98,.2-1.03,.36-2.07,.55-3.22-.59,.06-1.03,.07-1.47,.15-1.39,.27-2.77,.54-4.15,.85-.23,.05-.46,.08-.67,.08-.78,0-1.42-.34-1.92-1.03-1.02-1.42-2.05-2.83-2.99-4.3-.5-.77-.84-1.64-1.22-2.48-.4-.88-.18-1.65,.56-2.26,.35-.29,.69-.58,1.06-.84,2.24-1.57,3.83-3.64,4.8-6.19,1.38-3.62,3.47-6.77,6.36-9.36,2.32-2.08,3.92-4.64,5.11-7.47,.27-.64,.44-1.35,.54-2.04,.09-.55-.03-.8-.4-.8-.12,0-.26,.03-.43,.08-.56,.17-1.1,.41-1.64,.64-.99,.42-1.96,.91-2.97,1.28-.56,.2-1.14,.31-1.72,.31-.35,0-.71-.04-1.06-.12-1.51-.35-2.53-1.35-3.22-2.65-1.76-3.35-2.38-6.93-1.73-10.67,.38-2.21,2.18-3.71,4.4-3.77,.13,0,.25,0,.38,0,.93,0,1.87,.08,2.8,.13,1.65,.09,3.29,.26,4.94,.27h.03c2.88,0,5.1-1.24,6.59-3.77,.89-1.53,1.49-3.17,1.82-4.89,.22-1.11,.32-2.25,.37-3.39,.05-1.06-.38-1.44-1.44-1.52-.06,0-.13,0-.19,0-.86,0-1.47,.44-1.75,1.23-.36,1.03-.62,2.1-.83,3.17-.29,1.48-.42,3-.74,4.47-.49,2.24-1.66,3.25-3.74,3.25-.23,0-.47-.01-.72-.04-.96-.09-1.91-.23-2.85-.44-1.62-.37-3.16-.94-4.47-2.01-.69-.56-1.2-1.24-1.3-2.16-.18-1.6-.34-3.2-.55-4.8-.34-2.7-.06-5.24,1.69-7.48,2.21-2.83,4.35-5.72,6.55-8.56,.55-.71,1.22-1.33,1.88-1.94,.44-.41,.96-.6,1.53-.6,.2,0,.4,.02,.62,.07,1.03,.22,1.83,.81,2.31,1.69,.63,1.15,1.15,2.36,1.62,3.58,.15,.38,.3,.55,.57,.55,.09,0,.2-.02,.32-.06,.73-.23,1.47-.41,2.19-.67,1.24-.44,1.57-.99,1.57-2.3,0-2.76-.55-5.38-1.95-7.79-.53-.91-.67-1.89-.38-2.9,.46-1.61,1.1-3.15,2.08-4.53,1.14-1.6,2.56-2.59,4.52-2.59,.19,0,.38,0,.58,.03,.1,0,.21,.01,.32,.01,.51,0,1.07-.11,1.42-.38,2.05-1.59,3.42-3.71,4.2-6.17,.2-.64-.04-1.03-.52-1.03-.17,0-.36,.05-.57,.15-.77,.38-1.52,.82-2.22,1.33-3.21,2.35-6.1,5.07-8.94,7.85-6.28,6.15-12.3,12.54-17.65,19.52-3.21,4.18-5.93,8.64-7.66,13.65-1.51,4.38-2.41,8.91-3.14,13.47-1.07,6.69-2.09,13.4-3.01,20.12-1.82,13.28-3.33,26.6-4.39,39.97-.84,10.68-1.51,21.37-1.2,32.09,.06,2.06,.2,4.12,.41,6.17,.13,1.27,.66,1.74,1.81,1.74m45.94-117.36c.14,0,.29-.06,.45-.2,.3-.26,.59-.53,.82-.84,2.59-3.48,5.1-7.02,7.08-10.9,.51-1,.82-2.11,1.11-3.2,.11-.43-.08-.71-.41-.71-.12,0-.25,.03-.4,.11-.62,.32-1.22,.72-1.75,1.18-2.09,1.84-3.91,3.93-5.42,6.26-1.13,1.74-2.1,3.55-2.4,5.36-.17,1.26-.03,2.07,.36,2.59,.17,.23,.35,.35,.55,.35m-20.25,41.22c-.25,.16-.35,.19-.41,.26-.68,.73-1.39,1.43-2.01,2.21-.37,.46-.64,1.02-.85,1.58-.11,.29,.02,.66,.05,1,.34-.09,.74-.1,1-.3,1.04-.77,1.7-1.83,2.02-3.07,.13-.49,.12-1.02,.19-1.67m6.94,44.09s.09,0,.14-.01c.27-.04,.53-.06,.77-.06,1.41,0,2.53,.67,3.47,1.79,1,1.19,1.64,2.57,2.23,3.99,.52,1.25,1.05,2.49,1.6,3.73,.11,.26,.3,.48,.45,.72l.12-.03c.02-.18,.06-.37,.06-.55-.08-1.68-.12-3.37-.25-5.05-.26-3.36-.58-6.72-.84-10.08-.06-.72-.12-1.01-.45-1.01-.17,0-.41,.08-.76,.22-.09,.04-.18,.07-.27,.11-2.54,1.3-4.75,3.05-6.73,5.09-.23,.24-.3,.64-.44,.96,.3,.05,.62,.18,.91,.18m-7.48,22.53c.23,0,.5-.17,.77-.5,.75-.93,1.43-1.91,2.03-2.94,.28-.48,.46-1.13,.42-1.68-.14-1.93-.63-3.79-1.65-5.45-.21-.34-.7-.71-1.04-.71-.01,0-.03,0-.04,0-.35,.04-.79,.53-.93,.91-.34,.93-.52,1.92-.76,2.88l.11,.03c-.01,.39-.07,.79-.04,1.18,.15,1.81,.26,3.63,.52,5.43,.08,.57,.31,.86,.61,.86m16.15-9.14c-1.51,3.12-2.97,6.14-4.43,9.16-.15,.32-.26,.66-.34,1-.15,.59,.03,.86,.63,.95,.47,.07,.94,.11,1.4,.16,.14,.01,.28,.02,.4,.02,.76,0,1.11-.29,1.22-1.18,.42-3.33,.75-6.66,1.12-10.12m-27.68,67.02c.22,0,.47-.06,.76-.19,.92-.41,1.84-.91,2.63-1.53,2.2-1.75,4.34-3.57,6.48-5.39,.28-.24,.54-.35,.84-.35,.13,0,.27,.02,.43,.06,2.77,.72,5.56,1.39,8.34,2.1,.72,.18,1.49,.31,2.1,.69,1.62,1.01,2.76,2.48,3.55,4.22,.39,.86,.3,1.68-.34,2.36-.67,.71-1.36,1.42-2.14,2.02-1.29,1-2.65,1.9-3.97,2.85-.95,.68-1.8,1.46-2.29,2.56-.35,.78-.14,1.38,.62,1.78,.34,.18,.71,.34,1.09,.43,1.54,.38,3.1,.7,4.64,1.11,2.44,.64,4.94,1.17,6.94,2.89,.25,.21,.51,.31,.77,.31s.54-.1,.8-.29c.22-.16,.46-.31,.65-.5,2.31-2.4,4.62-4.81,6.92-7.23,.27-.28,.45-.64,.66-.97,.47-.77,.42-1.55-.11-2.26-.35-.47-.73-.94-1.19-1.3-2.42-1.9-4.86-3.79-7.32-5.64-6.69-5.02-14.12-8.42-22.29-10.23-.36-.08-.68-.13-.98-.13-.67,0-1.22,.23-1.8,.85-1.55,1.66-3.27,3.17-4.85,4.81-1.11,1.15-1.85,2.54-2,4.18,0,.49-.03,.98,.01,1.47,.09,.86,.45,1.32,1.06,1.32m11,19.05c.08,0,.17-.02,.27-.05,.91-.28,1.83-.62,2.63-1.11,.82-.5,1-1.44,.53-2.29-.3-.56-.74-1.06-1.2-1.5-.27-.27-.52-.4-.73-.4-.28,0-.52,.23-.71,.69-.48,1.16-.86,2.35-1.28,3.53-.03,.74,.1,1.12,.5,1.12m-5.2,38.31c1.91-1.27,3.74-2.61,5.56-3.96,.51-.38,.62-.92,.5-1.47-.31-1.43-.68-2.85-1.06-4.26-.08-.3-.31-.57-.47-.85h-.21c-1.72,3.39-2.97,6.97-4.32,10.55m-14.04,14.68c.66,0,1.28-.25,1.93-.74,2.02-1.54,3.68-3.42,5.26-5.38,.1-.13,.16-.29,.24-.43l-.09-.12c-.42,.18-.85,.34-1.26,.53-.66,.3-1.32,.48-2,.48-.42,0-.84-.07-1.26-.21-2.18-.74-3.42-3.27-2.75-5.63,.54-1.9,1.69-3.39,3.24-4.58,.7-.54,1.09-1.61,.76-2.57-.4,.31-.77,.53-1.04,.84-1.74,2-3.56,3.93-5.15,6.04-1.51,2-2.77,4.18-4.13,6.29-.41,.62-.27,1.16,.21,1.69,1.28,1.42,2.83,2.46,4.5,3.36,.54,.29,1.05,.43,1.55,.43M76.93,0c-1.47,0-2.95,.27-4.41,.8-5.05,1.84-8.9,5.44-11.14,10.4-1.54,3.42-1.19,6.24-.61,8,.15,.46,.2,1.15,.14,2.11-.21,3.5-.48,7.09-.74,10.55l-.02,.23c-.97,.69-1.91,1.36-2.86,1.99-.13-.06-.26-.13-.38-.2-.7-.42-1.43-.92-2.21-1.45-.63-.43-1.29-.88-1.99-1.33-.97-.62-2.05-1.13-3.22-1.54-.9-.31-1.83-.47-2.76-.47-3.82,0-7,2.68-7.75,6.51-.25,1.31-.34,2.64-.25,3.96,.24,3.47,.52,6.99,.77,10.01v.07c.2,2.43,.43,5.18,1.28,8.03,.92,3.08,2.58,5.51,4.94,7.19,.79,.57,1.64,1.02,2.51,1.34-.39,.64-.78,1.28-1.17,1.92-2.72,4.42-5.51,8.91-8.21,13.26-3.1,4.99-6.3,10.14-9.42,15.24-1.63,2.66-3.01,5.37-4.34,7.99l-.49,.96c-1.85,3.62-2.02,7.57-.5,11.42,.09,.24,.21,.98,.29,1.47,.13,.79,.23,1.7,.31,2.77,.5,6.89,4.32,11.63,7.16,14.59,1.31,1.37,3.13,2.14,5.02,2.14,.12,0,.23,0,.35,0,2.02-.1,3.89-1.07,5.13-2.67,.04-.06,.09-.11,.13-.16-.44,3.22-.89,6.43-1.34,9.65-.94,6.77-1.91,13.77-2.83,20.67-1.44,10.86-2.84,21.85-4.16,32.35-1.46-.96-3.12-1.46-4.86-1.46s-3.58,.55-5.16,1.6l-.11,.08c-.61,.4-1.44,.96-2.28,1.71-3.41,3.09-6.17,6.75-8.2,10.87-1.3,2.64-1.79,5.47-1.44,8.4,.34,2.9,.92,5.43,1.78,7.73,.66,1.77,1.41,3.25,2.29,4.51,2.63,3.75,6,4.31,7.78,4.31s3.61-.54,5.35-1.61c1.43-.88,2.68-1.88,3.71-2.74,1.13-.95,2.26-1.51,3.55-1.75,.43,1.51,.88,3.07,1.37,4.62,.63,1.99,1.41,3.87,2.11,5.53,1.03,2.46,3.04,4.15,5.43,4.66-1.45,1.49-2.86,2.93-4.3,4.29-.52-2.21-2-4.46-4.61-5.49-.84-.33-1.74-.5-2.66-.5-2.18,0-4.37,.98-5.86,2.61-.76,.84-1.55,1.77-2.47,2.94-.53,.67-1.04,1.34-1.55,2.02-.85,1.12-1.64,2.18-2.45,3.08-3.2,3.53-5.96,7.25-8.23,10.42-.83,1.16-1.75,2.32-2.72,3.54-.47,.59-.94,1.18-1.41,1.78-.22,.29-.46,.57-.69,.85-.74,.89-1.66,1.99-2.45,3.36-1.62,2.82-3.07,5.69-4.3,8.17-.84,1.7-1.38,3.38-1.6,5-.7,5.17,.71,10.16,4.08,14.43,2.84,3.6,6.13,4.35,8.4,4.35,1.36,0,2.75-.26,4.23-.8,3.85-1.4,7.16-3.67,9.84-6.75,.34-.39,.67-.79,1.01-1.18,.48-.57,.94-1.11,1.39-1.6,2.75-3.02,5.61-6.1,8.6-9.27,.57,2.34,1.62,4.59,3.12,6.7,.76,1.07,2.43,3.4,5.36,4.63-1.77,.63-3.84,1.85-5.65,4.17-2.58,3.33-4.03,7.23-4.32,11.59-.33,5.06,1.9,9.37,6.12,11.82l1.14,.67c1.26,.74,2.56,1.5,3.92,2.24,.29,.16,.58,.31,.87,.47,.77,.41,1.47,.79,2.04,1.16,.05,.46,.13,.93,.25,1.39,1.54,5.87,5.07,8.91,7.76,10.41,2.02,1.13,4.27,1.73,6.5,1.73,5.47,0,10.23-3.56,11.85-8.85,.42-1.38,1.03-2.71,1.86-4.07,3.3-5.39,7.46-10.35,12.72-15.16,2.54-2.32,4.65-3.76,6.85-4.65,.76-.31,1.38-.65,1.82-.9,.12-.07,.24-.14,.36-.2,3.12-1.44,5.07-4.38,5.2-7.84,.02-.52,.05-1.05,.07-1.57,.06-1.27,.13-2.59,.12-3.99-.04-5.43-2.56-10.08-7.09-13.08-.07-.05-.14-.1-.21-.15-.43-.3-1.08-.75-1.93-1.16-.29-.14-.58-.28-.88-.42,.61-.27,1.22-.55,1.83-.82,.77-.35,1.44-.72,1.98-1.02,.2-.11,.4-.22,.6-.33,2.15-1.14,3.96-2.64,5.42-4.51,1.53,.49,3.12,.74,4.73,.74,1.79,0,3.65-.31,5.51-.92,3.03-1,6.09-1.87,8.93-2.66,1.1-.31,2.29-.54,3.54-.71,2.43-.32,4.37-1.38,5.78-3.14,.35-.44,.69-.88,1.03-1.33,.33-.43,.65-.85,.99-1.27l.2-.25c.11-.14,.25-.31,.34-.41,1.16-.94,1.95-2.11,2.41-2.95,.41-.74,.68-1.56,.8-2.4,.09-.65,.39-2.89,.41-4.39,.06-4.94-1.47-8.99-4.55-12.03-.92-.91-1.85-1.65-2.67-2.29l-.2-.16c-.72-.57-1.45-1.12-2.18-1.68-1.28-.97-2.48-1.89-3.56-2.83-2.57-2.26-5.34-4.37-8.45-6.45-4.35-2.9-8.53-4.76-12.76-5.66-.62-.13-1.24-.26-1.85-.39,.18-.37,.33-.75,.48-1.12,.41,.1,.85,.18,1.3,.23,2.72,.31,5.38,.61,8.08,.74,.34,.02,.68,.02,1.02,.02,3.4,0,6.57-.82,9.4-2.45,3.45-1.97,6.57-4.56,9.55-7.9,2.22-2.49,3.31-5.55,3.18-8.85v-.19c-.04-.87-.09-1.95-.28-3.12-.93-5.64-2.99-10.13-6.29-13.73-2.16-2.36-4.68-3.71-7.49-4.03l-.26-.03c-1.42-.16-3.03-.35-4.74-.35-.37,0-.74,0-1.11,.03-.32,.02-.64,.04-.96,.07,.3-3.46,.51-7.39,.29-11.49-.04-.77-.04-1.32-.01-1.64,.09-.17,.23-.41,.34-.6,.14-.24,.28-.48,.41-.72,.25-.46,.55-.95,.86-1.47,.56-.94,1.2-2,1.78-3.19,2.1-4.35,1.75-9.03-1.01-13.18-1.42-2.14-3.3-3.86-5.6-5.1-2.22-1.2-4.45-2.12-6.54-2.87,1.55-.31,2.98-.96,4.21-1.9,3.12-2.39,5.33-4.77,6.95-7.47,2.68-4.45,2.45-9.54-.6-13.61-1.26-1.68-2.67-3.05-3.92-4.25l-.04-.04c-.78-.75-1.56-1.41-2.25-2-.29-.24-.57-.48-.85-.73-.51-.87-1.31-1.86-2.51-2.64,1.47-.6,3.03-1.2,4.71-1.81l.53-.19c1.7-.62,3.18-1.16,4.39-1.21,2.33-.09,7.91-1.07,9.47-8.2,.65-2.95,.49-5.63,.29-7.64-.24-2.4-.92-4.74-2.02-6.98,1.05-1.35,1.94-2.45,2.8-3.45,.77-.9,1.55-1.78,2.33-2.66,1-1.13,2.03-2.3,3.05-3.51,2.23-2.64,3.52-5.68,3.85-9.02,.76-7.73-3.27-15.34-10.26-19.4,1.32-2.19,1.94-4.35,2.22-6.12,.38-2.48,.65-4.99,.78-7.46,.22-4-.13-7.56-1.08-10.87-1.05-3.67-2.84-6.74-5.34-9.12-2.39-2.28-4.83-2.76-6.45-2.76s-4.62,.48-7.15,3.69c-.86,1.09-1.63,2.32-2.36,3.76l-.38,.76c-.92,1.83-1.78,3.57-2.81,4.71-.24,.27-.49,.55-.74,.83l-.02-.04c-.76-1.23-1.54-2.51-2.48-3.81-1.86-2.58-4.31-4.39-7.26-5.39-1.11-.38-1.89-1.05-2.45-2.12-.73-1.39-1.63-2.53-2.69-3.41-.56-1.51-1.48-2.9-2.75-4.08-2.43-2.28-5.37-3.48-8.51-3.48h0Zm-8.99,120.49c.05-.37,.1-.73,.15-1.1,.2-1.45,.41-2.92,.62-4.42,.66,.61,1.37,1.14,2.14,1.58-1.07,1.23-2.05,2.54-2.91,3.94h0Zm-5.35,58.08c.2-6.66,.66-13.27,1.16-19.6,.25-3.13,.52-6.3,.82-9.5,1.26,1.39,2.86,2.35,4.63,2.78-.12,.62-.24,1.24-.36,1.86-.73,3.76-1.47,7.51-2.19,11.27-.17,.86-.31,1.72-.46,2.58-.38,2.21-.74,4.31-1.38,6.08-.37,1.03-.95,2.14-1.67,3.49-.18,.34-.37,.69-.55,1.04h0Zm38.07,75.6c.22-.23,.43-.45,.64-.66,.19-.2,.37-.41,.54-.62l.3,.23c-.38,.4-.76,.79-1.14,1.19-.11-.05-.23-.09-.34-.13h0Z"/></g></g><text class="l" transform="translate(389.45 143.71)"><tspan class="h"><tspan x="0" y="0">K</tspan><tspan class="j" x="76.16" y="0">Y</tspan><tspan x="149.4" y="0">OKUSHIN</tspan></tspan><tspan class="h"><tspan x="0" y="110.87">KAR</tspan><tspan class="i" x="237.27" y="110.87">A</tspan><tspan x="309.38" y="110.87">TE</tspan></tspan><tspan class="f"><tspan x="0" y="158.19">CLUB DE GODERVILLE</tspan></tspan></text></g></g></svg>