<?xml version="1.0" encoding="UTF-8"?><svg xmlns="http://www.w3.org/2000/svg" xmlns:xlink="http://www.w3.org/1999/xlink" viewBox="0 0 357.12 357.12"><defs><style>.e{fill:#862c31;}.f{fill:#f5f9ef;}.g{fill:url(#d);}</style><radialGradient id="d" cx="178.56" cy="178.56" fx="178.56" fy="178.56" r="178.56" gradientTransform="matrix(1, 0, 0, 1, 0, 0)" gradientUnits="userSpaceOnUse"><stop offset=".55" stop-color="#862c31"/><stop offset=".62" stop-color="#882f34"/><stop offset=".68" stop-color="#8e3b3f"/><stop offset=".74" stop-color="#994e52"/><stop offset=".8" stop-color="#a8686c"/><stop offset=".86" stop-color="#bc8b8d"/><stop offset=".92" stop-color="#d4b5b6"/><stop offset=".97" stop-color="#f0e6e6"/><stop offset="1" stop-color="#fff"/></radialGradient></defs><g id="a"/><g id="b"><g id="c"><g><path class="g" d="M354.26,146.6C274.7,135.97,210.39,77.17,191.67,.48h0c-4.32-.32-8.7-.48-13.1-.48s-8.78,.16-13.1,.48h0C146.73,77.17,82.42,135.97,2.86,146.6c-1.87,10.37-2.86,21.05-2.86,31.96s.98,21.6,2.86,31.97c79.56,10.6,143.86,69.42,162.59,146.11,4.33,.32,8.7,.48,13.11,.48s8.78-.16,13.11-.48c18.73-76.69,83.03-135.51,162.59-146.11,1.87-10.38,2.86-21.06,2.86-31.97s-.98-21.6-2.86-31.96Zm-175.7,83.45c-28.43,0-51.48-23.04-51.48-51.48s23.05-51.48,51.48-51.48,51.48,23.05,51.48,51.48-23.05,51.48-51.48,51.48Z"/><g><path class="e" d="M11.93,137.96c1.38-5.67,3.04-11.28,4.98-16.76,.3-.85,.62-1.71,.93-2.56,.39-1.04,.8-2.1,1.21-3.15,.43-1.08,.86-2.13,1.3-3.19,.44-1.05,.89-2.09,1.35-3.13,.02-.05,.04-.1,.07-.15,.44-.98,.89-1.95,1.34-2.92,3.22-6.87,6.92-13.59,11.01-19.97,.46-.71,.92-1.43,1.4-2.14,1.47-2.21,2.95-4.34,4.42-6.36,.6-.81,1.22-1.66,1.85-2.49,.62-.81,1.24-1.63,1.88-2.43,.86-1.1,1.74-2.18,2.62-3.26,.6-.73,1.26-1.51,1.93-2.29,.69-.81,1.37-1.58,2.05-2.35l1.44-1.61c.43-.49,.84-.93,1.25-1.37,.03-.03,.05-.06,.08-.08,1.37-1.47,2.81-2.96,4.29-4.44,15.22-15.22,32.89-27.3,52.51-35.9l1.75-.75c14.2-6.02,29.07-10.07,44.33-12.08-9.81,32.45-28.23,61.5-53.68,84.48-25.63,23.15-56.67,38.56-90.29,44.91Z"/><path class="f" d="M145.4,17.52c-10.03,26.79-26.36,50.8-47.93,70.28-21.75,19.65-47.55,33.5-75.53,40.68,.52-1.64,1.07-3.27,1.64-4.89,.29-.82,.59-1.64,.89-2.46,.39-1.03,.78-2.05,1.19-3.1,.4-1,.8-2,1.22-2.99,.42-1.01,.85-2.01,1.29-3.01,.03-.06,.05-.11,.07-.17,.42-.92,.84-1.84,1.26-2.75,3.09-6.6,6.64-13.04,10.53-19.12,.45-.69,.89-1.39,1.37-2.09,1.39-2.1,2.81-4.14,4.22-6.07,.59-.81,1.19-1.62,1.8-2.42,.59-.78,1.18-1.55,1.79-2.33,.82-1.04,1.66-2.08,2.5-3.11,.61-.73,1.21-1.46,1.84-2.18l.07-.08c.63-.74,1.28-1.47,1.93-2.21l.67-.74c.25-.28,.51-.57,.76-.85,.03-.04,.06-.07,.1-.11,.28-.33,.6-.67,.97-1.06,.05-.06,.11-.11,.16-.17,1.29-1.39,2.67-2.82,4.11-4.25,14.57-14.57,31.49-26.15,50.29-34.39,.31-.13,.62-.27,.93-.4,.27-.12,.55-.24,.79-.34,10.05-4.26,20.44-7.49,31.07-9.67M165.45,.48c-19.98,1.45-39.04,6.19-56.65,13.66-.6,.26-1.21,.53-1.82,.78-20.52,9-39.05,21.74-54.68,37.38-1.52,1.52-3.01,3.06-4.46,4.62-.5,.52-.98,1.04-1.45,1.58-.48,.54-.95,1.06-1.43,1.6-.71,.8-1.42,1.61-2.11,2.42-.7,.81-1.39,1.64-2.07,2.46-.9,1.11-1.81,2.22-2.69,3.34-.66,.84-1.32,1.7-1.96,2.55-.64,.85-1.29,1.73-1.92,2.59-1.58,2.16-3.1,4.36-4.59,6.61-.5,.74-.98,1.5-1.47,2.25-4.26,6.65-8.08,13.59-11.46,20.79-.5,1.06-.98,2.13-1.47,3.2t0,0c-.48,1.08-.94,2.16-1.4,3.25-.46,1.09-.9,2.18-1.34,3.28-.43,1.1-.85,2.2-1.27,3.31-.33,.88-.65,1.78-.97,2.67-3.16,8.95-5.64,18.22-7.37,27.76C82.42,135.97,146.73,77.17,165.45,.48h0Z"/></g><g><path class="e" d="M155.89,348.54c-34.15-4.56-66.6-19.53-92.28-42.74-25.48-23.04-43.59-53.5-51.68-86.63,33.61,6.34,64.65,21.75,90.28,44.9,25.44,22.98,43.86,52.02,53.68,84.48Z"/><path class="f" d="M21.94,228.65c27.97,7.18,53.77,21.03,75.53,40.68,21.57,19.48,37.9,43.49,47.93,70.28-11.04-2.26-21.81-5.66-32.2-10.16-16.42-7.12-31.5-16.85-44.84-28.9-13.28-12.01-24.45-25.99-33.2-41.56-5.44-9.68-9.86-19.83-13.22-30.34M2.86,210.53c14.31,79.17,80.82,140.18,162.59,146.11C146.72,279.95,82.42,221.14,2.86,210.53h0Z"/></g><g><path class="e" d="M178.56,222.96c-24.48,0-44.4-19.92-44.4-44.4s19.92-44.4,44.4-44.4,44.4,19.92,44.4,44.4-19.92,44.4-44.4,44.4Z"/><path class="f" d="M178.56,141.25c20.57,0,37.31,16.74,37.31,37.31s-16.74,37.31-37.31,37.31-37.31-16.74-37.31-37.31,16.74-37.31,37.31-37.31m0-14.17c-28.43,0-51.48,23.05-51.48,51.48s23.05,51.48,51.48,51.48,51.48-23.04,51.48-51.48-23.05-51.48-51.48-51.48h0Z"/></g><g><path class="e" d="M201.23,348.54c9.81-32.45,28.23-61.5,53.68-84.48,25.63-23.15,56.67-38.55,90.28-44.9-8.08,33.13-26.19,63.59-51.68,86.63-25.68,23.22-58.13,38.19-92.28,42.74Z"/><path class="f" d="M335.18,228.65c-3.36,10.51-7.77,20.65-13.22,30.34-8.75,15.57-19.92,29.55-33.2,41.56-13.34,12.06-28.42,21.78-44.84,28.9-10.38,4.5-21.15,7.9-32.2,10.16,10.03-26.79,26.36-50.8,47.93-70.28,21.75-19.65,47.55-33.5,75.53-40.68m19.08-18.11c-79.56,10.6-143.86,69.42-162.59,146.11,81.77-5.93,148.27-66.94,162.59-146.11h0Z"/></g><g><path class="e" d="M345.19,137.96c-33.62-6.35-64.66-21.76-90.29-44.91-25.45-22.98-43.87-52.03-53.68-84.48,37.16,4.93,71.85,22.01,98.59,48.74,1.49,1.49,2.94,2.99,4.29,4.44,.03,.03,.05,.06,.08,.09,.42,.43,.82,.87,1.21,1.32l1.47,1.65c.68,.77,1.36,1.54,2.02,2.31,.69,.79,1.32,1.55,1.95,2.31l.07,.08c.83,1.02,1.71,2.1,2.57,3.2,.64,.81,1.27,1.63,1.88,2.44,.62,.82,1.25,1.67,1.87,2.51,1.46,2.01,2.95,4.14,4.39,6.32,.49,.73,.95,1.45,1.42,2.18,4.07,6.36,7.78,13.08,10.99,19.96,1.9,4.07,3.67,8.29,5.25,12.54,.31,.84,.63,1.7,.93,2.57,1.94,5.48,3.6,11.08,4.98,16.75Z"/><path class="f" d="M211.73,17.53c31.27,6.43,60.21,21.93,83.07,44.79,1.43,1.43,2.82,2.87,4.11,4.25,.05,.06,.11,.11,.16,.17,.37,.39,.69,.73,.97,1.06,.03,.04,.07,.08,.1,.11,.25,.28,.5,.56,.75,.84l.68,.76c.65,.73,1.29,1.47,1.93,2.21l.06,.07c.62,.72,1.22,1.44,1.84,2.18,.84,1.03,1.68,2.07,2.51,3.12,.6,.77,1.2,1.54,1.79,2.32,.6,.8,1.2,1.61,1.8,2.42,1.4,1.92,2.82,3.97,4.23,6.09,.44,.66,.87,1.33,1.31,2.01l.02,.03c3.92,6.12,7.47,12.56,10.55,19.15,1.82,3.9,3.52,7.95,5.03,11.99,.31,.82,.61,1.66,.9,2.47,.58,1.63,1.13,3.26,1.65,4.91-27.98-7.19-53.78-21.04-75.53-40.68-21.57-19.48-37.89-43.48-47.92-70.27M191.67,.48c18.72,76.69,83.03,135.5,162.59,146.12-1.73-9.53-4.21-18.81-7.37-27.76-.32-.89-.64-1.79-.97-2.67-1.66-4.44-3.48-8.8-5.48-13.06-3.37-7.2-7.2-14.15-11.46-20.79-.49-.75-.97-1.51-1.47-2.25-1.49-2.24-3.02-4.44-4.59-6.61-.63-.86-1.28-1.74-1.92-2.59-.64-.85-1.3-1.71-1.96-2.55-.88-1.12-1.79-2.23-2.69-3.34-.68-.82-1.37-1.65-2.07-2.46-.69-.81-1.4-1.62-2.11-2.42-.48-.54-.95-1.06-1.43-1.6-.47-.54-.95-1.06-1.45-1.58-1.46-1.57-2.95-3.1-4.46-4.62C275.39,22.88,235.76,3.67,191.67,.48h0Z"/></g></g></g></g></svg>